solid OpenSCAD_Model
  facet normal -0.707107 -0.707107 0
    outer loop
      vertex -40.9 -25.9 35
      vertex -40.9 -25.9 32
      vertex -35.9 -30.9 32
    endloop
  endfacet
  facet normal -0.707107 -0.707107 0
    outer loop
      vertex -35.9 -30.9 35
      vertex -40.9 -25.9 35
      vertex -35.9 -30.9 32
    endloop
  endfacet
  facet normal 0 0 -1
    outer loop
      vertex -37.2472 26.8334 32
      vertex -40.9 25.9 32
      vertex -35.9 30.9 32
    endloop
  endfacet
  facet normal 0 0 -1
    outer loop
      vertex -34.5288 26.2926 32
      vertex -35.9 30.9 32
      vertex 35.9 30.9 32
    endloop
  endfacet
  facet normal 0 0 -1
    outer loop
      vertex 37.3858 26.574 32
      vertex 35.9 30.9 32
      vertex 40.9 25.9 32
    endloop
  endfacet
  facet normal 0 0 -1
    outer loop
      vertex 37.4712 -25.7074 32
      vertex 40.9 25.9 32
      vertex 40.9 -25.9 32
    endloop
  endfacet
  facet normal 0 0 -1
    outer loop
      vertex 36.574 -27.3858 32
      vertex 40.9 -25.9 32
      vertex 35.9 -30.9 32
    endloop
  endfacet
  facet normal 0 0 -1
    outer loop
      vertex -40.9 -25.9 32
      vertex -40.9 25.9 32
      vertex -37.5 -26 32
    endloop
  endfacet
  facet normal 0 0 -1
    outer loop
      vertex -40.9 -25.9 32
      vertex -37.5 -26 32
      vertex -37.4712 -26.2926 32
    endloop
  endfacet
  facet normal 0 0 -1
    outer loop
      vertex -40.9 -25.9 32
      vertex -37.4712 -26.2926 32
      vertex -37.3858 -26.574 32
    endloop
  endfacet
  facet normal 0 0 -1
    outer loop
      vertex -40.9 -25.9 32
      vertex -37.3858 -26.574 32
      vertex -35.9 -30.9 32
    endloop
  endfacet
  facet normal 0 0 -1
    outer loop
      vertex -37.0607 -27.0607 32
      vertex -35.9 -30.9 32
      vertex -37.2472 -26.8334 32
    endloop
  endfacet
  facet normal 0 0 -1
    outer loop
      vertex -35.7074 24.5288 32
      vertex -34.5 -26 32
      vertex -34.5288 -25.7074 32
    endloop
  endfacet
  facet normal 0 0 -1
    outer loop
      vertex -36 -27.5 32
      vertex -35.9 -30.9 32
      vertex -36.2926 -27.4712 32
    endloop
  endfacet
  facet normal 0 0 -1
    outer loop
      vertex -37.2472 -25.1666 32
      vertex -40.9 25.9 32
      vertex -37.0607 -24.9393 32
    endloop
  endfacet
  facet normal 0 0 -1
    outer loop
      vertex -37.0607 -27.0607 32
      vertex -36.8334 -27.2472 32
      vertex -35.9 -30.9 32
    endloop
  endfacet
  facet normal 0 0 -1
    outer loop
      vertex -37.0607 -24.9393 32
      vertex -40.9 25.9 32
      vertex -36.8334 -24.7528 32
    endloop
  endfacet
  facet normal 0 0 -1
    outer loop
      vertex -36.8334 -27.2472 32
      vertex -36.574 -27.3858 32
      vertex -35.9 -30.9 32
    endloop
  endfacet
  facet normal 0 0 -1
    outer loop
      vertex -36.8334 -24.7528 32
      vertex -40.9 25.9 32
      vertex -36.574 -24.6142 32
    endloop
  endfacet
  facet normal 0 0 -1
    outer loop
      vertex -36.574 -27.3858 32
      vertex -36.2926 -27.4712 32
      vertex -35.9 -30.9 32
    endloop
  endfacet
  facet normal 0 0 -1
    outer loop
      vertex -36.574 -24.6142 32
      vertex -40.9 25.9 32
      vertex -36.2926 -24.5288 32
    endloop
  endfacet
  facet normal 0 0 -1
    outer loop
      vertex -34.7528 -26.8334 32
      vertex 35.9 30.9 32
      vertex -34.9393 -27.0607 32
    endloop
  endfacet
  facet normal 0 0 -1
    outer loop
      vertex -35.9 -30.9 32
      vertex -35.7074 -27.4712 32
      vertex -35.426 -27.3858 32
    endloop
  endfacet
  facet normal 0 0 -1
    outer loop
      vertex -35.9 -30.9 32
      vertex -35.426 -27.3858 32
      vertex -35.1666 -27.2472 32
    endloop
  endfacet
  facet normal 0 0 -1
    outer loop
      vertex -35.9 -30.9 32
      vertex -35.1666 -27.2472 32
      vertex 35.9 30.9 32
    endloop
  endfacet
  facet normal 0 0 -1
    outer loop
      vertex -35.1666 -27.2472 32
      vertex -34.9393 -27.0607 32
      vertex 35.9 30.9 32
    endloop
  endfacet
  facet normal 0 0 -1
    outer loop
      vertex -34.6142 -26.574 32
      vertex 35.9 30.9 32
      vertex -34.7528 -26.8334 32
    endloop
  endfacet
  facet normal 0 0 -1
    outer loop
      vertex -34.6142 -26.574 32
      vertex -34.5288 -26.2926 32
      vertex 35.9 30.9 32
    endloop
  endfacet
  facet normal 0 0 -1
    outer loop
      vertex -34.5288 -26.2926 32
      vertex -34.5 -26 32
      vertex 35.9 30.9 32
    endloop
  endfacet
  facet normal 0 0 -1
    outer loop
      vertex -35.7074 24.5288 32
      vertex -34.6142 -25.426 32
      vertex -34.7528 -25.1666 32
    endloop
  endfacet
  facet normal 0 0 -1
    outer loop
      vertex -36.2926 -24.5288 32
      vertex -40.9 25.9 32
      vertex -36 -24.5 32
    endloop
  endfacet
  facet normal 0 0 -1
    outer loop
      vertex -35.7074 -27.4712 32
      vertex -35.9 -30.9 32
      vertex -36 -27.5 32
    endloop
  endfacet
  facet normal 0 0 -1
    outer loop
      vertex -35.7074 24.5288 32
      vertex -34.5288 -25.7074 32
      vertex -34.6142 -25.426 32
    endloop
  endfacet
  facet normal 0 0 -1
    outer loop
      vertex -37.3858 -25.426 32
      vertex -40.9 25.9 32
      vertex -37.2472 -25.1666 32
    endloop
  endfacet
  facet normal 0 0 -1
    outer loop
      vertex -37.4712 -25.7074 32
      vertex -40.9 25.9 32
      vertex -37.3858 -25.426 32
    endloop
  endfacet
  facet normal 0 0 -1
    outer loop
      vertex -37.5 -26 32
      vertex -40.9 25.9 32
      vertex -37.4712 -25.7074 32
    endloop
  endfacet
  facet normal 0 0 -1
    outer loop
      vertex -36 -24.5 32
      vertex -40.9 25.9 32
      vertex -37.5 26 32
    endloop
  endfacet
  facet normal 0 0 -1
    outer loop
      vertex -36 -24.5 32
      vertex -37.5 26 32
      vertex -37.4712 25.7074 32
    endloop
  endfacet
  facet normal 0 0 -1
    outer loop
      vertex -36 -24.5 32
      vertex -37.4712 25.7074 32
      vertex -37.3858 25.426 32
    endloop
  endfacet
  facet normal 0 0 -1
    outer loop
      vertex -36 -24.5 32
      vertex -37.3858 25.426 32
      vertex -37.2472 25.1666 32
    endloop
  endfacet
  facet normal 0 0 -1
    outer loop
      vertex -36 -24.5 32
      vertex -37.2472 25.1666 32
      vertex -37.0607 24.9393 32
    endloop
  endfacet
  facet normal 0 0 -1
    outer loop
      vertex -36 -24.5 32
      vertex -37.0607 24.9393 32
      vertex -36.8334 24.7528 32
    endloop
  endfacet
  facet normal 0 0 -1
    outer loop
      vertex -36 -24.5 32
      vertex -36.8334 24.7528 32
      vertex -36.574 24.6142 32
    endloop
  endfacet
  facet normal 0 0 -1
    outer loop
      vertex -36 -24.5 32
      vertex -36.574 24.6142 32
      vertex -36.2926 24.5288 32
    endloop
  endfacet
  facet normal 0 0 -1
    outer loop
      vertex -36 -24.5 32
      vertex -36.2926 24.5288 32
      vertex -36 24.5 32
    endloop
  endfacet
  facet normal 0 0 -1
    outer loop
      vertex -34.7528 26.8334 32
      vertex -35.9 30.9 32
      vertex -34.6142 26.574 32
    endloop
  endfacet
  facet normal 0 0 -1
    outer loop
      vertex -34.5 -26 32
      vertex -35.7074 24.5288 32
      vertex 35.9 30.9 32
    endloop
  endfacet
  facet normal 0 0 -1
    outer loop
      vertex -36 27.5 32
      vertex -35.9 30.9 32
      vertex -35.7074 27.4712 32
    endloop
  endfacet
  facet normal 0 0 -1
    outer loop
      vertex -35.7074 24.5288 32
      vertex -35.426 24.6142 32
      vertex 35.9 30.9 32
    endloop
  endfacet
  facet normal 0 0 -1
    outer loop
      vertex -35.426 24.6142 32
      vertex -35.1666 24.7528 32
      vertex 35.9 30.9 32
    endloop
  endfacet
  facet normal 0 0 -1
    outer loop
      vertex -35.7074 27.4712 32
      vertex -35.9 30.9 32
      vertex -35.426 27.3858 32
    endloop
  endfacet
  facet normal 0 0 -1
    outer loop
      vertex -35.1666 24.7528 32
      vertex -34.9393 24.9393 32
      vertex 35.9 30.9 32
    endloop
  endfacet
  facet normal 0 0 -1
    outer loop
      vertex -34.9393 24.9393 32
      vertex -34.7528 25.1666 32
      vertex 35.9 30.9 32
    endloop
  endfacet
  facet normal 0 0 -1
    outer loop
      vertex -35.426 27.3858 32
      vertex -35.9 30.9 32
      vertex -35.1666 27.2472 32
    endloop
  endfacet
  facet normal 0 0 -1
    outer loop
      vertex -34.7528 25.1666 32
      vertex -34.6142 25.426 32
      vertex 35.9 30.9 32
    endloop
  endfacet
  facet normal 0 0 -1
    outer loop
      vertex -35.1666 27.2472 32
      vertex -35.9 30.9 32
      vertex -34.9393 27.0607 32
    endloop
  endfacet
  facet normal 0 0 -1
    outer loop
      vertex -34.6142 25.426 32
      vertex -34.5288 25.7074 32
      vertex 35.9 30.9 32
    endloop
  endfacet
  facet normal 0 0 -1
    outer loop
      vertex -34.9393 27.0607 32
      vertex -35.9 30.9 32
      vertex -34.7528 26.8334 32
    endloop
  endfacet
  facet normal 0 0 -1
    outer loop
      vertex -34.5288 25.7074 32
      vertex -34.5 26 32
      vertex 35.9 30.9 32
    endloop
  endfacet
  facet normal 0 0 -1
    outer loop
      vertex -34.6142 26.574 32
      vertex -35.9 30.9 32
      vertex -34.5288 26.2926 32
    endloop
  endfacet
  facet normal 0 0 -1
    outer loop
      vertex -34.5 26 32
      vertex -34.5288 26.2926 32
      vertex 35.9 30.9 32
    endloop
  endfacet
  facet normal 0 0 -1
    outer loop
      vertex -36.2926 27.4712 32
      vertex -35.9 30.9 32
      vertex -36 27.5 32
    endloop
  endfacet
  facet normal 0 0 -1
    outer loop
      vertex -36.574 27.3858 32
      vertex -35.9 30.9 32
      vertex -36.2926 27.4712 32
    endloop
  endfacet
  facet normal 0 0 -1
    outer loop
      vertex -36.8334 27.2472 32
      vertex -35.9 30.9 32
      vertex -36.574 27.3858 32
    endloop
  endfacet
  facet normal 0 0 -1
    outer loop
      vertex -37.0607 27.0607 32
      vertex -35.9 30.9 32
      vertex -36.8334 27.2472 32
    endloop
  endfacet
  facet normal 0 0 -1
    outer loop
      vertex -37.2472 26.8334 32
      vertex -35.9 30.9 32
      vertex -37.0607 27.0607 32
    endloop
  endfacet
  facet normal 0 0 -1
    outer loop
      vertex -37.3858 26.574 32
      vertex -40.9 25.9 32
      vertex -37.2472 26.8334 32
    endloop
  endfacet
  facet normal 0 0 -1
    outer loop
      vertex 34.6142 -26.574 32
      vertex -35.9 -30.9 32
      vertex 34.5288 -26.2926 32
    endloop
  endfacet
  facet normal 0 0 -1
    outer loop
      vertex -37.4712 26.2926 32
      vertex -40.9 25.9 32
      vertex -37.3858 26.574 32
    endloop
  endfacet
  facet normal 0 0 -1
    outer loop
      vertex -37.5 26 32
      vertex -40.9 25.9 32
      vertex -37.4712 26.2926 32
    endloop
  endfacet
  facet normal 0 0 -1
    outer loop
      vertex 36.8334 24.7528 32
      vertex 40.9 25.9 32
      vertex 36.574 24.6142 32
    endloop
  endfacet
  facet normal 0 0 -1
    outer loop
      vertex -35.9 -30.9 32
      vertex 34.5 -26 32
      vertex 34.5288 -26.2926 32
    endloop
  endfacet
  facet normal 0 0 -1
    outer loop
      vertex 36.8334 -27.2472 32
      vertex 40.9 -25.9 32
      vertex 36.574 -27.3858 32
    endloop
  endfacet
  facet normal 0 0 -1
    outer loop
      vertex -35.9 -30.9 32
      vertex 34.6142 -26.574 32
      vertex 35.9 -30.9 32
    endloop
  endfacet
  facet normal 0 0 -1
    outer loop
      vertex 37.5 -26 32
      vertex 40.9 -25.9 32
      vertex 37.4712 -26.2926 32
    endloop
  endfacet
  facet normal 0 0 -1
    outer loop
      vertex 34.6142 -26.574 32
      vertex 34.7528 -26.8334 32
      vertex 35.9 -30.9 32
    endloop
  endfacet
  facet normal 0 0 -1
    outer loop
      vertex 37.4712 -26.2926 32
      vertex 40.9 -25.9 32
      vertex 37.3858 -26.574 32
    endloop
  endfacet
  facet normal 0 0 -1
    outer loop
      vertex 34.7528 -26.8334 32
      vertex 34.9393 -27.0607 32
      vertex 35.9 -30.9 32
    endloop
  endfacet
  facet normal 0 0 -1
    outer loop
      vertex 34.9393 -27.0607 32
      vertex 35.1666 -27.2472 32
      vertex 35.9 -30.9 32
    endloop
  endfacet
  facet normal 0 0 -1
    outer loop
      vertex 37.3858 -26.574 32
      vertex 40.9 -25.9 32
      vertex 37.2472 -26.8334 32
    endloop
  endfacet
  facet normal 0 0 -1
    outer loop
      vertex 35.1666 -27.2472 32
      vertex 35.426 -27.3858 32
      vertex 35.9 -30.9 32
    endloop
  endfacet
  facet normal 0 0 -1
    outer loop
      vertex 37.2472 -26.8334 32
      vertex 40.9 -25.9 32
      vertex 37.0607 -27.0607 32
    endloop
  endfacet
  facet normal 0 0 -1
    outer loop
      vertex 35.426 -27.3858 32
      vertex 35.7074 -27.4712 32
      vertex 35.9 -30.9 32
    endloop
  endfacet
  facet normal 0 0 -1
    outer loop
      vertex 35.7074 -27.4712 32
      vertex 36 -27.5 32
      vertex 35.9 -30.9 32
    endloop
  endfacet
  facet normal 0 0 -1
    outer loop
      vertex 37.0607 -27.0607 32
      vertex 40.9 -25.9 32
      vertex 36.8334 -27.2472 32
    endloop
  endfacet
  facet normal 0 0 -1
    outer loop
      vertex 36 -27.5 32
      vertex 36.2926 -27.4712 32
      vertex 35.9 -30.9 32
    endloop
  endfacet
  facet normal 0 0 -1
    outer loop
      vertex 36.2926 -27.4712 32
      vertex 36.574 -27.3858 32
      vertex 35.9 -30.9 32
    endloop
  endfacet
  facet normal 0 0 -1
    outer loop
      vertex 37.4712 -25.7074 32
      vertex 40.9 -25.9 32
      vertex 37.5 -26 32
    endloop
  endfacet
  facet normal 0 0 -1
    outer loop
      vertex 37.3858 -25.426 32
      vertex 40.9 25.9 32
      vertex 37.4712 -25.7074 32
    endloop
  endfacet
  facet normal 0 0 -1
    outer loop
      vertex 34.5288 -25.7074 32
      vertex 40.9 25.9 32
      vertex 34.6142 -25.426 32
    endloop
  endfacet
  facet normal 0 0 -1
    outer loop
      vertex 37.2472 -25.1666 32
      vertex 40.9 25.9 32
      vertex 37.3858 -25.426 32
    endloop
  endfacet
  facet normal 0 0 -1
    outer loop
      vertex 37.0607 -24.9393 32
      vertex 40.9 25.9 32
      vertex 37.2472 -25.1666 32
    endloop
  endfacet
  facet normal 0 0 -1
    outer loop
      vertex 36.8334 -24.7528 32
      vertex 40.9 25.9 32
      vertex 37.0607 -24.9393 32
    endloop
  endfacet
  facet normal 0 0 -1
    outer loop
      vertex 36.574 -24.6142 32
      vertex 40.9 25.9 32
      vertex 36.8334 -24.7528 32
    endloop
  endfacet
  facet normal 0 0 -1
    outer loop
      vertex 36.2926 -24.5288 32
      vertex 40.9 25.9 32
      vertex 36.574 -24.6142 32
    endloop
  endfacet
  facet normal 0 0 -1
    outer loop
      vertex 36 -24.5 32
      vertex 40.9 25.9 32
      vertex 36.2926 -24.5288 32
    endloop
  endfacet
  facet normal 0 0 -1
    outer loop
      vertex 35.7074 -24.5288 32
      vertex 40.9 25.9 32
      vertex 36 -24.5 32
    endloop
  endfacet
  facet normal 0 0 -1
    outer loop
      vertex 35.426 -24.6142 32
      vertex 40.9 25.9 32
      vertex 35.7074 -24.5288 32
    endloop
  endfacet
  facet normal 0 0 -1
    outer loop
      vertex 35.1666 -24.7528 32
      vertex 40.9 25.9 32
      vertex 35.426 -24.6142 32
    endloop
  endfacet
  facet normal 0 0 -1
    outer loop
      vertex 34.9393 -24.9393 32
      vertex 40.9 25.9 32
      vertex 35.1666 -24.7528 32
    endloop
  endfacet
  facet normal 0 0 -1
    outer loop
      vertex 34.7528 -25.1666 32
      vertex 40.9 25.9 32
      vertex 34.9393 -24.9393 32
    endloop
  endfacet
  facet normal 0 0 -1
    outer loop
      vertex 34.6142 -25.426 32
      vertex 40.9 25.9 32
      vertex 34.7528 -25.1666 32
    endloop
  endfacet
  facet normal 0 0 -1
    outer loop
      vertex -35.9 -30.9 32
      vertex 40.9 25.9 32
      vertex 34.5288 -25.7074 32
    endloop
  endfacet
  facet normal 0 0 -1
    outer loop
      vertex -35.9 -30.9 32
      vertex 34.5288 -25.7074 32
      vertex 34.5 -26 32
    endloop
  endfacet
  facet normal 0 0 -1
    outer loop
      vertex -35.9 -30.9 32
      vertex 34.5 26 32
      vertex 34.5288 25.7074 32
    endloop
  endfacet
  facet normal 0 0 -1
    outer loop
      vertex -35.9 -30.9 32
      vertex 34.5288 25.7074 32
      vertex 34.6142 25.426 32
    endloop
  endfacet
  facet normal 0 0 -1
    outer loop
      vertex -35.9 -30.9 32
      vertex 34.6142 25.426 32
      vertex 34.7528 25.1666 32
    endloop
  endfacet
  facet normal 0 0 -1
    outer loop
      vertex -35.9 -30.9 32
      vertex 34.7528 25.1666 32
      vertex 34.9393 24.9393 32
    endloop
  endfacet
  facet normal 0 0 -1
    outer loop
      vertex -35.9 -30.9 32
      vertex 34.9393 24.9393 32
      vertex 35.1666 24.7528 32
    endloop
  endfacet
  facet normal 0 0 -1
    outer loop
      vertex -35.9 -30.9 32
      vertex 35.1666 24.7528 32
      vertex 35.426 24.6142 32
    endloop
  endfacet
  facet normal 0 0 -1
    outer loop
      vertex -35.9 -30.9 32
      vertex 35.426 24.6142 32
      vertex 35.7074 24.5288 32
    endloop
  endfacet
  facet normal 0 0 -1
    outer loop
      vertex -35.9 -30.9 32
      vertex 35.7074 24.5288 32
      vertex 36 24.5 32
    endloop
  endfacet
  facet normal 0 0 -1
    outer loop
      vertex -35.9 -30.9 32
      vertex 36 24.5 32
      vertex 36.2926 24.5288 32
    endloop
  endfacet
  facet normal 0 0 -1
    outer loop
      vertex -35.9 -30.9 32
      vertex 36.2926 24.5288 32
      vertex 40.9 25.9 32
    endloop
  endfacet
  facet normal 0 0 -1
    outer loop
      vertex 36.2926 24.5288 32
      vertex 36.574 24.6142 32
      vertex 40.9 25.9 32
    endloop
  endfacet
  facet normal 0 0 -1
    outer loop
      vertex 37.0607 24.9393 32
      vertex 40.9 25.9 32
      vertex 36.8334 24.7528 32
    endloop
  endfacet
  facet normal 0 0 -1
    outer loop
      vertex 37.2472 25.1666 32
      vertex 40.9 25.9 32
      vertex 37.0607 24.9393 32
    endloop
  endfacet
  facet normal 0 0 -1
    outer loop
      vertex 37.3858 25.426 32
      vertex 40.9 25.9 32
      vertex 37.2472 25.1666 32
    endloop
  endfacet
  facet normal 0 0 -1
    outer loop
      vertex 37.4712 25.7074 32
      vertex 40.9 25.9 32
      vertex 37.3858 25.426 32
    endloop
  endfacet
  facet normal 0 0 -1
    outer loop
      vertex 37.5 26 32
      vertex 40.9 25.9 32
      vertex 37.4712 25.7074 32
    endloop
  endfacet
  facet normal 0 0 -1
    outer loop
      vertex 34.6142 26.574 32
      vertex 35.9 30.9 32
      vertex 34.7528 26.8334 32
    endloop
  endfacet
  facet normal 0 0 -1
    outer loop
      vertex 37.2472 26.8334 32
      vertex 35.9 30.9 32
      vertex 37.3858 26.574 32
    endloop
  endfacet
  facet normal 0 0 -1
    outer loop
      vertex 37.0607 27.0607 32
      vertex 35.9 30.9 32
      vertex 37.2472 26.8334 32
    endloop
  endfacet
  facet normal 0 0 -1
    outer loop
      vertex 37.5 26 32
      vertex 37.4712 26.2926 32
      vertex 40.9 25.9 32
    endloop
  endfacet
  facet normal 0 0 -1
    outer loop
      vertex 37.4712 26.2926 32
      vertex 37.3858 26.574 32
      vertex 40.9 25.9 32
    endloop
  endfacet
  facet normal 0 0 -1
    outer loop
      vertex 36.8334 27.2472 32
      vertex 35.9 30.9 32
      vertex 37.0607 27.0607 32
    endloop
  endfacet
  facet normal 0 0 -1
    outer loop
      vertex 36.574 27.3858 32
      vertex 35.9 30.9 32
      vertex 36.8334 27.2472 32
    endloop
  endfacet
  facet normal 0 0 -1
    outer loop
      vertex 36.2926 27.4712 32
      vertex 35.9 30.9 32
      vertex 36.574 27.3858 32
    endloop
  endfacet
  facet normal 0 0 -1
    outer loop
      vertex 36 27.5 32
      vertex 35.9 30.9 32
      vertex 36.2926 27.4712 32
    endloop
  endfacet
  facet normal 0 0 -1
    outer loop
      vertex 35.7074 27.4712 32
      vertex 35.9 30.9 32
      vertex 36 27.5 32
    endloop
  endfacet
  facet normal 0 0 -1
    outer loop
      vertex 35.426 27.3858 32
      vertex 35.9 30.9 32
      vertex 35.7074 27.4712 32
    endloop
  endfacet
  facet normal 0 0 -1
    outer loop
      vertex 35.1666 27.2472 32
      vertex 35.9 30.9 32
      vertex 35.426 27.3858 32
    endloop
  endfacet
  facet normal 0 0 -1
    outer loop
      vertex 34.9393 27.0607 32
      vertex 35.9 30.9 32
      vertex 35.1666 27.2472 32
    endloop
  endfacet
  facet normal 0 0 -1
    outer loop
      vertex 34.7528 26.8334 32
      vertex 35.9 30.9 32
      vertex 34.9393 27.0607 32
    endloop
  endfacet
  facet normal 0 0 -1
    outer loop
      vertex -35.9 -30.9 32
      vertex 35.9 30.9 32
      vertex 34.6142 26.574 32
    endloop
  endfacet
  facet normal 0 0 -1
    outer loop
      vertex -35.9 -30.9 32
      vertex 34.6142 26.574 32
      vertex 34.5288 26.2926 32
    endloop
  endfacet
  facet normal 0 0 -1
    outer loop
      vertex -35.9 -30.9 32
      vertex 34.5288 26.2926 32
      vertex 34.5 26 32
    endloop
  endfacet
  facet normal 0 0 -1
    outer loop
      vertex -37.2472 -26.8334 32
      vertex -35.9 -30.9 32
      vertex -37.3858 -26.574 32
    endloop
  endfacet
  facet normal 0 0 -1
    outer loop
      vertex -35.7074 24.5288 32
      vertex -34.7528 -25.1666 32
      vertex -34.9393 -24.9393 32
    endloop
  endfacet
  facet normal 0 0 -1
    outer loop
      vertex -35.7074 24.5288 32
      vertex -34.9393 -24.9393 32
      vertex -35.1666 -24.7528 32
    endloop
  endfacet
  facet normal 0 0 -1
    outer loop
      vertex -35.7074 24.5288 32
      vertex -35.1666 -24.7528 32
      vertex -35.426 -24.6142 32
    endloop
  endfacet
  facet normal 0 0 -1
    outer loop
      vertex -35.7074 24.5288 32
      vertex -35.426 -24.6142 32
      vertex -35.7074 -24.5288 32
    endloop
  endfacet
  facet normal 0 0 -1
    outer loop
      vertex -35.7074 24.5288 32
      vertex -35.7074 -24.5288 32
      vertex -36 -24.5 32
    endloop
  endfacet
  facet normal 0 0 -1
    outer loop
      vertex -35.7074 24.5288 32
      vertex -36 -24.5 32
      vertex -36 24.5 32
    endloop
  endfacet
  facet normal -1 0 0
    outer loop
      vertex -40.9 -25.9 32
      vertex -40.9 -25.9 35
      vertex -40.9 25.9 32
    endloop
  endfacet
  facet normal -1 0 0
    outer loop
      vertex -40.9 25.9 32
      vertex -40.9 -25.9 35
      vertex -40.9 25.9 35
    endloop
  endfacet
  facet normal 0 0 1
    outer loop
      vertex -37.3858 -26.574 35
      vertex -40.9 -25.9 35
      vertex -35.9 -30.9 35
    endloop
  endfacet
  facet normal 0 0 1
    outer loop
      vertex 34.5288 -26.2926 35
      vertex -40.9 25.9 35
      vertex 35.9 -30.9 35
    endloop
  endfacet
  facet normal 0 0 1
    outer loop
      vertex -36.2926 24.5288 35
      vertex -40.9 25.9 35
      vertex 40.9 -25.9 35
    endloop
  endfacet
  facet normal 0 0 1
    outer loop
      vertex -37.4712 25.7074 35
      vertex -37.5 26 35
      vertex -40.9 25.9 35
    endloop
  endfacet
  facet normal 0 0 1
    outer loop
      vertex -37.5 -26 35
      vertex -40.9 -25.9 35
      vertex -37.4712 -26.2926 35
    endloop
  endfacet
  facet normal 0 0 1
    outer loop
      vertex -36.574 -24.6142 35
      vertex -36.2926 -24.5288 35
      vertex -40.9 25.9 35
    endloop
  endfacet
  facet normal 0 0 1
    outer loop
      vertex -40.9 25.9 35
      vertex -40.9 -25.9 35
      vertex -37.5 -26 35
    endloop
  endfacet
  facet normal 0 0 1
    outer loop
      vertex -37.2472 -26.8334 35
      vertex -37.3858 -26.574 35
      vertex -35.9 -30.9 35
    endloop
  endfacet
  facet normal 0 0 1
    outer loop
      vertex -36.2926 -27.4712 35
      vertex -36.574 -27.3858 35
      vertex -35.9 -30.9 35
    endloop
  endfacet
  facet normal 0 0 1
    outer loop
      vertex -37.0607 -27.0607 35
      vertex -37.2472 -26.8334 35
      vertex -35.9 -30.9 35
    endloop
  endfacet
  facet normal 0 0 1
    outer loop
      vertex -40.9 25.9 35
      vertex -37.4712 -25.7074 35
      vertex -37.3858 -25.426 35
    endloop
  endfacet
  facet normal 0 0 1
    outer loop
      vertex -36.8334 -27.2472 35
      vertex -37.0607 -27.0607 35
      vertex -35.9 -30.9 35
    endloop
  endfacet
  facet normal 0 0 1
    outer loop
      vertex -40.9 25.9 35
      vertex -37.3858 -25.426 35
      vertex -37.2472 -25.1666 35
    endloop
  endfacet
  facet normal 0 0 1
    outer loop
      vertex -37.5 26 35
      vertex -37.4712 26.2926 35
      vertex -40.9 25.9 35
    endloop
  endfacet
  facet normal 0 0 1
    outer loop
      vertex -40.9 25.9 35
      vertex -37.2472 -25.1666 35
      vertex -37.0607 -24.9393 35
    endloop
  endfacet
  facet normal 0 0 1
    outer loop
      vertex -40.9 25.9 35
      vertex -37.0607 -24.9393 35
      vertex -36.8334 -24.7528 35
    endloop
  endfacet
  facet normal 0 0 1
    outer loop
      vertex -35.7074 -24.5288 35
      vertex -35.426 -24.6142 35
      vertex 35.9 -30.9 35
    endloop
  endfacet
  facet normal 0 0 1
    outer loop
      vertex -40.9 25.9 35
      vertex -36.8334 -24.7528 35
      vertex -36.574 -24.6142 35
    endloop
  endfacet
  facet normal 0 0 1
    outer loop
      vertex -36.574 -27.3858 35
      vertex -36.8334 -27.2472 35
      vertex -35.9 -30.9 35
    endloop
  endfacet
  facet normal 0 0 1
    outer loop
      vertex -36 -24.5 35
      vertex -40.9 25.9 35
      vertex -36.2926 -24.5288 35
    endloop
  endfacet
  facet normal 0 0 1
    outer loop
      vertex 35.9 -30.9 35
      vertex -40.9 25.9 35
      vertex -36 -24.5 35
    endloop
  endfacet
  facet normal 0 0 1
    outer loop
      vertex -34.6142 -26.574 35
      vertex -34.7528 -26.8334 35
      vertex -35.9 -30.9 35
    endloop
  endfacet
  facet normal 0 0 1
    outer loop
      vertex 35.9 -30.9 35
      vertex -36 -24.5 35
      vertex -35.7074 -24.5288 35
    endloop
  endfacet
  facet normal 0 0 1
    outer loop
      vertex -36 -27.5 35
      vertex -36.2926 -27.4712 35
      vertex -35.9 -30.9 35
    endloop
  endfacet
  facet normal 0 0 1
    outer loop
      vertex 35.9 -30.9 35
      vertex -35.426 -24.6142 35
      vertex -35.1666 -24.7528 35
    endloop
  endfacet
  facet normal 0 0 1
    outer loop
      vertex 35.9 -30.9 35
      vertex -35.1666 -24.7528 35
      vertex -34.9393 -24.9393 35
    endloop
  endfacet
  facet normal 0 0 1
    outer loop
      vertex -35.426 -27.3858 35
      vertex -35.7074 -27.4712 35
      vertex -35.9 -30.9 35
    endloop
  endfacet
  facet normal 0 0 1
    outer loop
      vertex 35.9 -30.9 35
      vertex -34.9393 -24.9393 35
      vertex -34.7528 -25.1666 35
    endloop
  endfacet
  facet normal 0 0 1
    outer loop
      vertex 35.9 -30.9 35
      vertex -34.7528 -25.1666 35
      vertex -34.6142 -25.426 35
    endloop
  endfacet
  facet normal 0 0 1
    outer loop
      vertex -34.9393 -27.0607 35
      vertex -35.1666 -27.2472 35
      vertex -35.9 -30.9 35
    endloop
  endfacet
  facet normal 0 0 1
    outer loop
      vertex 35.9 -30.9 35
      vertex -34.6142 -25.426 35
      vertex -34.5288 -25.7074 35
    endloop
  endfacet
  facet normal 0 0 1
    outer loop
      vertex -34.7528 -26.8334 35
      vertex -34.9393 -27.0607 35
      vertex -35.9 -30.9 35
    endloop
  endfacet
  facet normal 0 0 1
    outer loop
      vertex 35.9 -30.9 35
      vertex -34.5288 -25.7074 35
      vertex -34.5 -26 35
    endloop
  endfacet
  facet normal 0 0 1
    outer loop
      vertex 35.9 -30.9 35
      vertex -34.5288 -26.2926 35
      vertex -35.9 -30.9 35
    endloop
  endfacet
  facet normal 0 0 1
    outer loop
      vertex 35.9 -30.9 35
      vertex -34.5 -26 35
      vertex -34.5288 -26.2926 35
    endloop
  endfacet
  facet normal 0 0 1
    outer loop
      vertex -34.5288 -26.2926 35
      vertex -34.6142 -26.574 35
      vertex -35.9 -30.9 35
    endloop
  endfacet
  facet normal 0 0 1
    outer loop
      vertex -35.7074 -27.4712 35
      vertex -36 -27.5 35
      vertex -35.9 -30.9 35
    endloop
  endfacet
  facet normal 0 0 1
    outer loop
      vertex -35.426 24.6142 35
      vertex -35.7074 24.5288 35
      vertex 40.9 -25.9 35
    endloop
  endfacet
  facet normal 0 0 1
    outer loop
      vertex -37.4712 -26.2926 35
      vertex -40.9 -25.9 35
      vertex -37.3858 -26.574 35
    endloop
  endfacet
  facet normal 0 0 1
    outer loop
      vertex -36.574 24.6142 35
      vertex -36.8334 24.7528 35
      vertex -40.9 25.9 35
    endloop
  endfacet
  facet normal 0 0 1
    outer loop
      vertex 37.2472 -25.1666 35
      vertex 37.3858 -25.426 35
      vertex 40.9 -25.9 35
    endloop
  endfacet
  facet normal 0 0 1
    outer loop
      vertex 34.6142 26.574 35
      vertex 34.7528 26.8334 35
      vertex 35.9 30.9 35
    endloop
  endfacet
  facet normal 0 0 1
    outer loop
      vertex -34.5288 26.2926 35
      vertex -34.5 26 35
      vertex 35.9 30.9 35
    endloop
  endfacet
  facet normal 0 0 1
    outer loop
      vertex -37.3858 26.574 35
      vertex -40.9 25.9 35
      vertex -37.4712 26.2926 35
    endloop
  endfacet
  facet normal 0 0 1
    outer loop
      vertex -36 27.5 35
      vertex -35.7074 27.4712 35
      vertex 35.9 30.9 35
    endloop
  endfacet
  facet normal 0 0 1
    outer loop
      vertex -35.9 30.9 35
      vertex -40.9 25.9 35
      vertex -37.3858 26.574 35
    endloop
  endfacet
  facet normal 0 0 1
    outer loop
      vertex -34.6142 26.574 35
      vertex -34.5288 26.2926 35
      vertex 35.9 30.9 35
    endloop
  endfacet
  facet normal 0 0 1
    outer loop
      vertex -34.9393 27.0607 35
      vertex -34.7528 26.8334 35
      vertex 35.9 30.9 35
    endloop
  endfacet
  facet normal 0 0 1
    outer loop
      vertex -35.9 30.9 35
      vertex -37.2472 26.8334 35
      vertex -37.0607 27.0607 35
    endloop
  endfacet
  facet normal 0 0 1
    outer loop
      vertex -35.1666 27.2472 35
      vertex -34.9393 27.0607 35
      vertex 35.9 30.9 35
    endloop
  endfacet
  facet normal 0 0 1
    outer loop
      vertex -35.9 30.9 35
      vertex -37.0607 27.0607 35
      vertex -36.8334 27.2472 35
    endloop
  endfacet
  facet normal 0 0 1
    outer loop
      vertex -35.426 27.3858 35
      vertex -35.1666 27.2472 35
      vertex 35.9 30.9 35
    endloop
  endfacet
  facet normal 0 0 1
    outer loop
      vertex -35.9 30.9 35
      vertex -36.8334 27.2472 35
      vertex -36.574 27.3858 35
    endloop
  endfacet
  facet normal 0 0 1
    outer loop
      vertex -35.7074 27.4712 35
      vertex -35.426 27.3858 35
      vertex 35.9 30.9 35
    endloop
  endfacet
  facet normal 0 0 1
    outer loop
      vertex -35.9 30.9 35
      vertex -36.574 27.3858 35
      vertex -36.2926 27.4712 35
    endloop
  endfacet
  facet normal 0 0 1
    outer loop
      vertex -35.9 30.9 35
      vertex -36 27.5 35
      vertex 35.9 30.9 35
    endloop
  endfacet
  facet normal 0 0 1
    outer loop
      vertex -35.9 30.9 35
      vertex -36.2926 27.4712 35
      vertex -36 27.5 35
    endloop
  endfacet
  facet normal 0 0 1
    outer loop
      vertex -34.7528 26.8334 35
      vertex -34.6142 26.574 35
      vertex 35.9 30.9 35
    endloop
  endfacet
  facet normal 0 0 1
    outer loop
      vertex -37.3858 26.574 35
      vertex -37.2472 26.8334 35
      vertex -35.9 30.9 35
    endloop
  endfacet
  facet normal 0 0 1
    outer loop
      vertex 34.5288 25.7074 35
      vertex -34.5288 25.7074 35
      vertex 40.9 -25.9 35
    endloop
  endfacet
  facet normal 0 0 1
    outer loop
      vertex -34.5288 25.7074 35
      vertex -34.6142 25.426 35
      vertex 40.9 -25.9 35
    endloop
  endfacet
  facet normal 0 0 1
    outer loop
      vertex -34.6142 25.426 35
      vertex -34.7528 25.1666 35
      vertex 40.9 -25.9 35
    endloop
  endfacet
  facet normal 0 0 1
    outer loop
      vertex -34.7528 25.1666 35
      vertex -34.9393 24.9393 35
      vertex 40.9 -25.9 35
    endloop
  endfacet
  facet normal 0 0 1
    outer loop
      vertex -34.9393 24.9393 35
      vertex -35.1666 24.7528 35
      vertex 40.9 -25.9 35
    endloop
  endfacet
  facet normal 0 0 1
    outer loop
      vertex -35.1666 24.7528 35
      vertex -35.426 24.6142 35
      vertex 40.9 -25.9 35
    endloop
  endfacet
  facet normal 0 0 1
    outer loop
      vertex -35.7074 24.5288 35
      vertex -36 24.5 35
      vertex 40.9 -25.9 35
    endloop
  endfacet
  facet normal 0 0 1
    outer loop
      vertex -36 24.5 35
      vertex -36.2926 24.5288 35
      vertex 40.9 -25.9 35
    endloop
  endfacet
  facet normal 0 0 1
    outer loop
      vertex -36.574 24.6142 35
      vertex -40.9 25.9 35
      vertex -36.2926 24.5288 35
    endloop
  endfacet
  facet normal 0 0 1
    outer loop
      vertex -36.8334 24.7528 35
      vertex -37.0607 24.9393 35
      vertex -40.9 25.9 35
    endloop
  endfacet
  facet normal 0 0 1
    outer loop
      vertex 36.574 -24.6142 35
      vertex 36.8334 -24.7528 35
      vertex 40.9 -25.9 35
    endloop
  endfacet
  facet normal 0 0 1
    outer loop
      vertex -37.2472 25.1666 35
      vertex -40.9 25.9 35
      vertex -37.0607 24.9393 35
    endloop
  endfacet
  facet normal 0 0 1
    outer loop
      vertex -37.3858 25.426 35
      vertex -40.9 25.9 35
      vertex -37.2472 25.1666 35
    endloop
  endfacet
  facet normal 0 0 1
    outer loop
      vertex -37.4712 25.7074 35
      vertex -40.9 25.9 35
      vertex -37.3858 25.426 35
    endloop
  endfacet
  facet normal 0 0 1
    outer loop
      vertex 34.6142 -26.574 35
      vertex 34.5288 -26.2926 35
      vertex 35.9 -30.9 35
    endloop
  endfacet
  facet normal 0 0 1
    outer loop
      vertex 34.5 -26 35
      vertex -40.9 25.9 35
      vertex 34.5288 -26.2926 35
    endloop
  endfacet
  facet normal 0 0 1
    outer loop
      vertex 34.5288 -25.7074 35
      vertex -40.9 25.9 35
      vertex 34.5 -26 35
    endloop
  endfacet
  facet normal 0 0 1
    outer loop
      vertex 37.5 -26 35
      vertex 37.4712 -26.2926 35
      vertex 40.9 -25.9 35
    endloop
  endfacet
  facet normal 0 0 1
    outer loop
      vertex 34.6142 -25.426 35
      vertex -40.9 25.9 35
      vertex 34.5288 -25.7074 35
    endloop
  endfacet
  facet normal 0 0 1
    outer loop
      vertex 34.7528 -25.1666 35
      vertex -40.9 25.9 35
      vertex 34.6142 -25.426 35
    endloop
  endfacet
  facet normal 0 0 1
    outer loop
      vertex 34.9393 -24.9393 35
      vertex -40.9 25.9 35
      vertex 34.7528 -25.1666 35
    endloop
  endfacet
  facet normal 0 0 1
    outer loop
      vertex 35.1666 -24.7528 35
      vertex -40.9 25.9 35
      vertex 34.9393 -24.9393 35
    endloop
  endfacet
  facet normal 0 0 1
    outer loop
      vertex 35.426 -24.6142 35
      vertex -40.9 25.9 35
      vertex 35.1666 -24.7528 35
    endloop
  endfacet
  facet normal 0 0 1
    outer loop
      vertex 35.7074 -24.5288 35
      vertex -40.9 25.9 35
      vertex 35.426 -24.6142 35
    endloop
  endfacet
  facet normal 0 0 1
    outer loop
      vertex 36 -24.5 35
      vertex -40.9 25.9 35
      vertex 35.7074 -24.5288 35
    endloop
  endfacet
  facet normal 0 0 1
    outer loop
      vertex 36.2926 -24.5288 35
      vertex -40.9 25.9 35
      vertex 36 -24.5 35
    endloop
  endfacet
  facet normal 0 0 1
    outer loop
      vertex 40.9 -25.9 35
      vertex -40.9 25.9 35
      vertex 36.2926 -24.5288 35
    endloop
  endfacet
  facet normal 0 0 1
    outer loop
      vertex 36.8334 -24.7528 35
      vertex 37.0607 -24.9393 35
      vertex 40.9 -25.9 35
    endloop
  endfacet
  facet normal 0 0 1
    outer loop
      vertex 40.9 -25.9 35
      vertex 36.2926 -24.5288 35
      vertex 36.574 -24.6142 35
    endloop
  endfacet
  facet normal 0 0 1
    outer loop
      vertex 37.0607 -24.9393 35
      vertex 37.2472 -25.1666 35
      vertex 40.9 -25.9 35
    endloop
  endfacet
  facet normal 0 0 1
    outer loop
      vertex 37.3858 -25.426 35
      vertex 37.4712 -25.7074 35
      vertex 40.9 -25.9 35
    endloop
  endfacet
  facet normal 0 0 1
    outer loop
      vertex 37.4712 -25.7074 35
      vertex 37.5 -26 35
      vertex 40.9 -25.9 35
    endloop
  endfacet
  facet normal 0 0 1
    outer loop
      vertex 34.5288 25.7074 35
      vertex 34.5 26 35
      vertex -34.5 26 35
    endloop
  endfacet
  facet normal 0 0 1
    outer loop
      vertex 37.3858 -26.574 35
      vertex 37.2472 -26.8334 35
      vertex 35.9 -30.9 35
    endloop
  endfacet
  facet normal 0 0 1
    outer loop
      vertex 34.5288 25.7074 35
      vertex -34.5 26 35
      vertex -34.5288 25.7074 35
    endloop
  endfacet
  facet normal 0 0 1
    outer loop
      vertex 40.9 -25.9 35
      vertex 37.3858 -26.574 35
      vertex 35.9 -30.9 35
    endloop
  endfacet
  facet normal 0 0 1
    outer loop
      vertex 40.9 -25.9 35
      vertex 37.4712 -26.2926 35
      vertex 37.3858 -26.574 35
    endloop
  endfacet
  facet normal 0 0 1
    outer loop
      vertex 37.2472 -26.8334 35
      vertex 37.0607 -27.0607 35
      vertex 35.9 -30.9 35
    endloop
  endfacet
  facet normal 0 0 1
    outer loop
      vertex 37.0607 -27.0607 35
      vertex 36.8334 -27.2472 35
      vertex 35.9 -30.9 35
    endloop
  endfacet
  facet normal 0 0 1
    outer loop
      vertex 36.8334 -27.2472 35
      vertex 36.574 -27.3858 35
      vertex 35.9 -30.9 35
    endloop
  endfacet
  facet normal 0 0 1
    outer loop
      vertex 36.574 -27.3858 35
      vertex 36.2926 -27.4712 35
      vertex 35.9 -30.9 35
    endloop
  endfacet
  facet normal 0 0 1
    outer loop
      vertex 36.2926 -27.4712 35
      vertex 36 -27.5 35
      vertex 35.9 -30.9 35
    endloop
  endfacet
  facet normal 0 0 1
    outer loop
      vertex 36 -27.5 35
      vertex 35.7074 -27.4712 35
      vertex 35.9 -30.9 35
    endloop
  endfacet
  facet normal 0 0 1
    outer loop
      vertex 35.7074 -27.4712 35
      vertex 35.426 -27.3858 35
      vertex 35.9 -30.9 35
    endloop
  endfacet
  facet normal 0 0 1
    outer loop
      vertex 35.426 -27.3858 35
      vertex 35.1666 -27.2472 35
      vertex 35.9 -30.9 35
    endloop
  endfacet
  facet normal 0 0 1
    outer loop
      vertex 35.1666 -27.2472 35
      vertex 34.9393 -27.0607 35
      vertex 35.9 -30.9 35
    endloop
  endfacet
  facet normal 0 0 1
    outer loop
      vertex 34.9393 -27.0607 35
      vertex 34.7528 -26.8334 35
      vertex 35.9 -30.9 35
    endloop
  endfacet
  facet normal 0 0 1
    outer loop
      vertex 34.7528 -26.8334 35
      vertex 34.6142 -26.574 35
      vertex 35.9 -30.9 35
    endloop
  endfacet
  facet normal 0 0 1
    outer loop
      vertex 34.6142 25.426 35
      vertex 34.5288 25.7074 35
      vertex 40.9 -25.9 35
    endloop
  endfacet
  facet normal 0 0 1
    outer loop
      vertex 36.8334 27.2472 35
      vertex 37.0607 27.0607 35
      vertex 40.9 25.9 35
    endloop
  endfacet
  facet normal 0 0 1
    outer loop
      vertex 34.5288 26.2926 35
      vertex -34.5 26 35
      vertex 34.5 26 35
    endloop
  endfacet
  facet normal 0 0 1
    outer loop
      vertex 35.9 30.9 35
      vertex -34.5 26 35
      vertex 34.5288 26.2926 35
    endloop
  endfacet
  facet normal 0 0 1
    outer loop
      vertex 36.574 27.3858 35
      vertex 36.8334 27.2472 35
      vertex 40.9 25.9 35
    endloop
  endfacet
  facet normal 0 0 1
    outer loop
      vertex 35.9 30.9 35
      vertex 34.5288 26.2926 35
      vertex 34.6142 26.574 35
    endloop
  endfacet
  facet normal 0 0 1
    outer loop
      vertex 37.3858 26.574 35
      vertex 37.4712 26.2926 35
      vertex 40.9 25.9 35
    endloop
  endfacet
  facet normal 0 0 1
    outer loop
      vertex 35.9 30.9 35
      vertex 34.7528 26.8334 35
      vertex 34.9393 27.0607 35
    endloop
  endfacet
  facet normal 0 0 1
    outer loop
      vertex 37.5 26 35
      vertex 37.4712 25.7074 35
      vertex 40.9 25.9 35
    endloop
  endfacet
  facet normal 0 0 1
    outer loop
      vertex 35.9 30.9 35
      vertex 34.9393 27.0607 35
      vertex 35.1666 27.2472 35
    endloop
  endfacet
  facet normal 0 0 1
    outer loop
      vertex 35.9 30.9 35
      vertex 35.1666 27.2472 35
      vertex 35.426 27.3858 35
    endloop
  endfacet
  facet normal 0 0 1
    outer loop
      vertex 37.0607 27.0607 35
      vertex 37.2472 26.8334 35
      vertex 40.9 25.9 35
    endloop
  endfacet
  facet normal 0 0 1
    outer loop
      vertex 35.9 30.9 35
      vertex 35.426 27.3858 35
      vertex 35.7074 27.4712 35
    endloop
  endfacet
  facet normal 0 0 1
    outer loop
      vertex 37.2472 26.8334 35
      vertex 37.3858 26.574 35
      vertex 40.9 25.9 35
    endloop
  endfacet
  facet normal 0 0 1
    outer loop
      vertex 35.9 30.9 35
      vertex 35.7074 27.4712 35
      vertex 36 27.5 35
    endloop
  endfacet
  facet normal 0 0 1
    outer loop
      vertex 35.9 30.9 35
      vertex 36 27.5 35
      vertex 36.2926 27.4712 35
    endloop
  endfacet
  facet normal 0 0 1
    outer loop
      vertex 35.9 30.9 35
      vertex 36.574 27.3858 35
      vertex 40.9 25.9 35
    endloop
  endfacet
  facet normal 0 0 1
    outer loop
      vertex 35.9 30.9 35
      vertex 36.2926 27.4712 35
      vertex 36.574 27.3858 35
    endloop
  endfacet
  facet normal 0 0 1
    outer loop
      vertex 37.4712 26.2926 35
      vertex 37.5 26 35
      vertex 40.9 25.9 35
    endloop
  endfacet
  facet normal 0 0 1
    outer loop
      vertex 40.9 25.9 35
      vertex 37.4712 25.7074 35
      vertex 40.9 -25.9 35
    endloop
  endfacet
  facet normal 0 0 1
    outer loop
      vertex 37.4712 25.7074 35
      vertex 37.3858 25.426 35
      vertex 40.9 -25.9 35
    endloop
  endfacet
  facet normal 0 0 1
    outer loop
      vertex 37.3858 25.426 35
      vertex 37.2472 25.1666 35
      vertex 40.9 -25.9 35
    endloop
  endfacet
  facet normal 0 0 1
    outer loop
      vertex 37.2472 25.1666 35
      vertex 37.0607 24.9393 35
      vertex 40.9 -25.9 35
    endloop
  endfacet
  facet normal 0 0 1
    outer loop
      vertex 37.0607 24.9393 35
      vertex 36.8334 24.7528 35
      vertex 40.9 -25.9 35
    endloop
  endfacet
  facet normal 0 0 1
    outer loop
      vertex 36.8334 24.7528 35
      vertex 36.574 24.6142 35
      vertex 40.9 -25.9 35
    endloop
  endfacet
  facet normal 0 0 1
    outer loop
      vertex 36.574 24.6142 35
      vertex 36.2926 24.5288 35
      vertex 40.9 -25.9 35
    endloop
  endfacet
  facet normal 0 0 1
    outer loop
      vertex 36.2926 24.5288 35
      vertex 36 24.5 35
      vertex 40.9 -25.9 35
    endloop
  endfacet
  facet normal 0 0 1
    outer loop
      vertex 36 24.5 35
      vertex 35.7074 24.5288 35
      vertex 40.9 -25.9 35
    endloop
  endfacet
  facet normal 0 0 1
    outer loop
      vertex 35.7074 24.5288 35
      vertex 35.426 24.6142 35
      vertex 40.9 -25.9 35
    endloop
  endfacet
  facet normal 0 0 1
    outer loop
      vertex 35.426 24.6142 35
      vertex 35.1666 24.7528 35
      vertex 40.9 -25.9 35
    endloop
  endfacet
  facet normal 0 0 1
    outer loop
      vertex 35.1666 24.7528 35
      vertex 34.9393 24.9393 35
      vertex 40.9 -25.9 35
    endloop
  endfacet
  facet normal 0 0 1
    outer loop
      vertex 34.9393 24.9393 35
      vertex 34.7528 25.1666 35
      vertex 40.9 -25.9 35
    endloop
  endfacet
  facet normal 0 0 1
    outer loop
      vertex 34.7528 25.1666 35
      vertex 34.6142 25.426 35
      vertex 40.9 -25.9 35
    endloop
  endfacet
  facet normal 0 0 1
    outer loop
      vertex -37.5 -26 35
      vertex -37.4712 -25.7074 35
      vertex -40.9 25.9 35
    endloop
  endfacet
  facet normal 0 0 1
    outer loop
      vertex -35.1666 -27.2472 35
      vertex -35.426 -27.3858 35
      vertex -35.9 -30.9 35
    endloop
  endfacet
  facet normal 0 -1 0
    outer loop
      vertex -35.9 -30.9 35
      vertex -35.9 -30.9 32
      vertex 35.9 -30.9 32
    endloop
  endfacet
  facet normal 0 -1 0
    outer loop
      vertex 35.9 -30.9 35
      vertex -35.9 -30.9 35
      vertex 35.9 -30.9 32
    endloop
  endfacet
  facet normal 0.707107 -0.707107 0
    outer loop
      vertex 35.9 -30.9 35
      vertex 35.9 -30.9 32
      vertex 40.9 -25.9 32
    endloop
  endfacet
  facet normal 0.707107 -0.707107 0
    outer loop
      vertex 40.9 -25.9 35
      vertex 35.9 -30.9 35
      vertex 40.9 -25.9 32
    endloop
  endfacet
  facet normal 1 0 0
    outer loop
      vertex 40.9 -25.9 35
      vertex 40.9 -25.9 32
      vertex 40.9 25.9 32
    endloop
  endfacet
  facet normal 1 0 0
    outer loop
      vertex 40.9 25.9 35
      vertex 40.9 -25.9 35
      vertex 40.9 25.9 32
    endloop
  endfacet
  facet normal 0.707107 0.707107 0
    outer loop
      vertex 35.9 30.9 32
      vertex 35.9 30.9 35
      vertex 40.9 25.9 32
    endloop
  endfacet
  facet normal 0.707107 0.707107 0
    outer loop
      vertex 40.9 25.9 32
      vertex 35.9 30.9 35
      vertex 40.9 25.9 35
    endloop
  endfacet
  facet normal 0 1 0
    outer loop
      vertex -35.9 30.9 32
      vertex -35.9 30.9 35
      vertex 35.9 30.9 32
    endloop
  endfacet
  facet normal 0 1 0
    outer loop
      vertex 35.9 30.9 32
      vertex -35.9 30.9 35
      vertex 35.9 30.9 35
    endloop
  endfacet
  facet normal -0.707107 0.707107 0
    outer loop
      vertex -40.9 25.9 32
      vertex -40.9 25.9 35
      vertex -35.9 30.9 32
    endloop
  endfacet
  facet normal -0.707107 0.707107 0
    outer loop
      vertex -35.9 30.9 32
      vertex -40.9 25.9 35
      vertex -35.9 30.9 35
    endloop
  endfacet
  facet normal 0.995185 -0.098017 0
    outer loop
      vertex -37.4712 -25.7074 32
      vertex -37.4712 -25.7074 35
      vertex -37.5 -26 35
    endloop
  endfacet
  facet normal 0.995185 -0.098017 0
    outer loop
      vertex -37.5 -26 32
      vertex -37.4712 -25.7074 32
      vertex -37.5 -26 35
    endloop
  endfacet
  facet normal 0.995185 0.098017 0
    outer loop
      vertex -37.5 -26 35
      vertex -37.4712 -26.2926 35
      vertex -37.4712 -26.2926 32
    endloop
  endfacet
  facet normal 0.995185 0.098017 0
    outer loop
      vertex -37.5 -26 32
      vertex -37.5 -26 35
      vertex -37.4712 -26.2926 32
    endloop
  endfacet
  facet normal 0.95694 -0.290286 0
    outer loop
      vertex -37.3858 -25.426 32
      vertex -37.3858 -25.426 35
      vertex -37.4712 -25.7074 35
    endloop
  endfacet
  facet normal 0.95694 -0.290286 0
    outer loop
      vertex -37.4712 -25.7074 32
      vertex -37.3858 -25.426 32
      vertex -37.4712 -25.7074 35
    endloop
  endfacet
  facet normal 0.881921 -0.471397 0
    outer loop
      vertex -37.2472 -25.1666 32
      vertex -37.2472 -25.1666 35
      vertex -37.3858 -25.426 35
    endloop
  endfacet
  facet normal 0.881921 -0.471397 0
    outer loop
      vertex -37.3858 -25.426 32
      vertex -37.2472 -25.1666 32
      vertex -37.3858 -25.426 35
    endloop
  endfacet
  facet normal 0.773011 -0.634392 0
    outer loop
      vertex -37.0607 -24.9393 32
      vertex -37.0607 -24.9393 35
      vertex -37.2472 -25.1666 35
    endloop
  endfacet
  facet normal 0.773011 -0.634392 0
    outer loop
      vertex -37.2472 -25.1666 32
      vertex -37.0607 -24.9393 32
      vertex -37.2472 -25.1666 35
    endloop
  endfacet
  facet normal 0.634392 -0.773011 0
    outer loop
      vertex -36.8334 -24.7528 32
      vertex -36.8334 -24.7528 35
      vertex -37.0607 -24.9393 35
    endloop
  endfacet
  facet normal 0.634392 -0.773011 0
    outer loop
      vertex -37.0607 -24.9393 32
      vertex -36.8334 -24.7528 32
      vertex -37.0607 -24.9393 35
    endloop
  endfacet
  facet normal 0.471397 -0.881921 0
    outer loop
      vertex -36.574 -24.6142 32
      vertex -36.574 -24.6142 35
      vertex -36.8334 -24.7528 35
    endloop
  endfacet
  facet normal 0.471397 -0.881921 0
    outer loop
      vertex -36.8334 -24.7528 32
      vertex -36.574 -24.6142 32
      vertex -36.8334 -24.7528 35
    endloop
  endfacet
  facet normal 0.290286 -0.95694 0
    outer loop
      vertex -36.2926 -24.5288 32
      vertex -36.2926 -24.5288 35
      vertex -36.574 -24.6142 35
    endloop
  endfacet
  facet normal 0.290286 -0.95694 0
    outer loop
      vertex -36.574 -24.6142 32
      vertex -36.2926 -24.5288 32
      vertex -36.574 -24.6142 35
    endloop
  endfacet
  facet normal 0.098017 -0.995185 0
    outer loop
      vertex -36 -24.5 32
      vertex -36 -24.5 35
      vertex -36.2926 -24.5288 35
    endloop
  endfacet
  facet normal 0.098017 -0.995185 0
    outer loop
      vertex -36.2926 -24.5288 32
      vertex -36 -24.5 32
      vertex -36.2926 -24.5288 35
    endloop
  endfacet
  facet normal -0.098017 -0.995185 0
    outer loop
      vertex -35.7074 -24.5288 32
      vertex -35.7074 -24.5288 35
      vertex -36 -24.5 35
    endloop
  endfacet
  facet normal -0.098017 -0.995185 0
    outer loop
      vertex -36 -24.5 32
      vertex -35.7074 -24.5288 32
      vertex -36 -24.5 35
    endloop
  endfacet
  facet normal -0.290286 -0.95694 0
    outer loop
      vertex -35.426 -24.6142 32
      vertex -35.426 -24.6142 35
      vertex -35.7074 -24.5288 35
    endloop
  endfacet
  facet normal -0.290286 -0.95694 0
    outer loop
      vertex -35.7074 -24.5288 32
      vertex -35.426 -24.6142 32
      vertex -35.7074 -24.5288 35
    endloop
  endfacet
  facet normal -0.471397 -0.881921 0
    outer loop
      vertex -35.1666 -24.7528 32
      vertex -35.1666 -24.7528 35
      vertex -35.426 -24.6142 35
    endloop
  endfacet
  facet normal -0.471397 -0.881921 0
    outer loop
      vertex -35.426 -24.6142 32
      vertex -35.1666 -24.7528 32
      vertex -35.426 -24.6142 35
    endloop
  endfacet
  facet normal -0.634392 -0.773011 0
    outer loop
      vertex -34.9393 -24.9393 32
      vertex -34.9393 -24.9393 35
      vertex -35.1666 -24.7528 35
    endloop
  endfacet
  facet normal -0.634392 -0.773011 0
    outer loop
      vertex -35.1666 -24.7528 32
      vertex -34.9393 -24.9393 32
      vertex -35.1666 -24.7528 35
    endloop
  endfacet
  facet normal -0.773011 -0.634392 0
    outer loop
      vertex -34.7528 -25.1666 35
      vertex -34.9393 -24.9393 35
      vertex -34.7528 -25.1666 32
    endloop
  endfacet
  facet normal -0.773011 -0.634392 0
    outer loop
      vertex -34.7528 -25.1666 32
      vertex -34.9393 -24.9393 35
      vertex -34.9393 -24.9393 32
    endloop
  endfacet
  facet normal -0.881921 -0.471397 0
    outer loop
      vertex -34.6142 -25.426 35
      vertex -34.7528 -25.1666 35
      vertex -34.6142 -25.426 32
    endloop
  endfacet
  facet normal -0.881921 -0.471397 0
    outer loop
      vertex -34.6142 -25.426 32
      vertex -34.7528 -25.1666 35
      vertex -34.7528 -25.1666 32
    endloop
  endfacet
  facet normal -0.95694 -0.290286 0
    outer loop
      vertex -34.5288 -25.7074 35
      vertex -34.6142 -25.426 35
      vertex -34.5288 -25.7074 32
    endloop
  endfacet
  facet normal -0.95694 -0.290286 0
    outer loop
      vertex -34.5288 -25.7074 32
      vertex -34.6142 -25.426 35
      vertex -34.6142 -25.426 32
    endloop
  endfacet
  facet normal -0.995185 -0.098017 0
    outer loop
      vertex -34.5 -26 35
      vertex -34.5288 -25.7074 35
      vertex -34.5 -26 32
    endloop
  endfacet
  facet normal -0.995185 -0.098017 0
    outer loop
      vertex -34.5 -26 32
      vertex -34.5288 -25.7074 35
      vertex -34.5288 -25.7074 32
    endloop
  endfacet
  facet normal -0.995185 0.098017 0
    outer loop
      vertex -34.5 -26 35
      vertex -34.5 -26 32
      vertex -34.5288 -26.2926 35
    endloop
  endfacet
  facet normal -0.995185 0.098017 0
    outer loop
      vertex -34.5288 -26.2926 35
      vertex -34.5 -26 32
      vertex -34.5288 -26.2926 32
    endloop
  endfacet
  facet normal -0.95694 0.290286 0
    outer loop
      vertex -34.5288 -26.2926 35
      vertex -34.5288 -26.2926 32
      vertex -34.6142 -26.574 35
    endloop
  endfacet
  facet normal -0.95694 0.290286 0
    outer loop
      vertex -34.6142 -26.574 35
      vertex -34.5288 -26.2926 32
      vertex -34.6142 -26.574 32
    endloop
  endfacet
  facet normal -0.881921 0.471397 0
    outer loop
      vertex -34.6142 -26.574 35
      vertex -34.6142 -26.574 32
      vertex -34.7528 -26.8334 35
    endloop
  endfacet
  facet normal -0.881921 0.471397 0
    outer loop
      vertex -34.7528 -26.8334 35
      vertex -34.6142 -26.574 32
      vertex -34.7528 -26.8334 32
    endloop
  endfacet
  facet normal -0.773011 0.634392 0
    outer loop
      vertex -34.7528 -26.8334 35
      vertex -34.7528 -26.8334 32
      vertex -34.9393 -27.0607 35
    endloop
  endfacet
  facet normal -0.773011 0.634392 0
    outer loop
      vertex -34.9393 -27.0607 35
      vertex -34.7528 -26.8334 32
      vertex -34.9393 -27.0607 32
    endloop
  endfacet
  facet normal -0.634392 0.773011 0
    outer loop
      vertex -34.9393 -27.0607 35
      vertex -34.9393 -27.0607 32
      vertex -35.1666 -27.2472 35
    endloop
  endfacet
  facet normal -0.634392 0.773011 0
    outer loop
      vertex -35.1666 -27.2472 35
      vertex -34.9393 -27.0607 32
      vertex -35.1666 -27.2472 32
    endloop
  endfacet
  facet normal -0.471397 0.881921 0
    outer loop
      vertex -35.1666 -27.2472 35
      vertex -35.1666 -27.2472 32
      vertex -35.426 -27.3858 35
    endloop
  endfacet
  facet normal -0.471397 0.881921 0
    outer loop
      vertex -35.426 -27.3858 35
      vertex -35.1666 -27.2472 32
      vertex -35.426 -27.3858 32
    endloop
  endfacet
  facet normal -0.290286 0.95694 0
    outer loop
      vertex -35.426 -27.3858 35
      vertex -35.426 -27.3858 32
      vertex -35.7074 -27.4712 35
    endloop
  endfacet
  facet normal -0.290286 0.95694 0
    outer loop
      vertex -35.7074 -27.4712 35
      vertex -35.426 -27.3858 32
      vertex -35.7074 -27.4712 32
    endloop
  endfacet
  facet normal -0.098017 0.995185 0
    outer loop
      vertex -35.7074 -27.4712 35
      vertex -35.7074 -27.4712 32
      vertex -36 -27.5 35
    endloop
  endfacet
  facet normal -0.098017 0.995185 0
    outer loop
      vertex -36 -27.5 35
      vertex -35.7074 -27.4712 32
      vertex -36 -27.5 32
    endloop
  endfacet
  facet normal 0.098017 0.995185 0
    outer loop
      vertex -36 -27.5 35
      vertex -36 -27.5 32
      vertex -36.2926 -27.4712 35
    endloop
  endfacet
  facet normal 0.098017 0.995185 0
    outer loop
      vertex -36.2926 -27.4712 35
      vertex -36 -27.5 32
      vertex -36.2926 -27.4712 32
    endloop
  endfacet
  facet normal 0.290286 0.95694 0
    outer loop
      vertex -36.2926 -27.4712 35
      vertex -36.2926 -27.4712 32
      vertex -36.574 -27.3858 35
    endloop
  endfacet
  facet normal 0.290286 0.95694 0
    outer loop
      vertex -36.574 -27.3858 35
      vertex -36.2926 -27.4712 32
      vertex -36.574 -27.3858 32
    endloop
  endfacet
  facet normal 0.471397 0.881921 0
    outer loop
      vertex -36.574 -27.3858 35
      vertex -36.574 -27.3858 32
      vertex -36.8334 -27.2472 35
    endloop
  endfacet
  facet normal 0.471397 0.881921 0
    outer loop
      vertex -36.8334 -27.2472 35
      vertex -36.574 -27.3858 32
      vertex -36.8334 -27.2472 32
    endloop
  endfacet
  facet normal 0.634392 0.773011 0
    outer loop
      vertex -36.8334 -27.2472 35
      vertex -36.8334 -27.2472 32
      vertex -37.0607 -27.0607 35
    endloop
  endfacet
  facet normal 0.634392 0.773011 0
    outer loop
      vertex -37.0607 -27.0607 35
      vertex -36.8334 -27.2472 32
      vertex -37.0607 -27.0607 32
    endloop
  endfacet
  facet normal 0.773011 0.634392 0
    outer loop
      vertex -37.2472 -26.8334 35
      vertex -37.0607 -27.0607 35
      vertex -37.0607 -27.0607 32
    endloop
  endfacet
  facet normal 0.773011 0.634392 0
    outer loop
      vertex -37.2472 -26.8334 32
      vertex -37.2472 -26.8334 35
      vertex -37.0607 -27.0607 32
    endloop
  endfacet
  facet normal 0.881921 0.471397 0
    outer loop
      vertex -37.3858 -26.574 35
      vertex -37.2472 -26.8334 35
      vertex -37.2472 -26.8334 32
    endloop
  endfacet
  facet normal 0.881921 0.471397 0
    outer loop
      vertex -37.3858 -26.574 32
      vertex -37.3858 -26.574 35
      vertex -37.2472 -26.8334 32
    endloop
  endfacet
  facet normal 0.95694 0.290286 0
    outer loop
      vertex -37.4712 -26.2926 35
      vertex -37.3858 -26.574 35
      vertex -37.3858 -26.574 32
    endloop
  endfacet
  facet normal 0.95694 0.290286 0
    outer loop
      vertex -37.4712 -26.2926 32
      vertex -37.4712 -26.2926 35
      vertex -37.3858 -26.574 32
    endloop
  endfacet
  facet normal 0.995185 -0.098017 0
    outer loop
      vertex -37.4712 26.2926 32
      vertex -37.4712 26.2926 35
      vertex -37.5 26 35
    endloop
  endfacet
  facet normal 0.995185 -0.098017 0
    outer loop
      vertex -37.5 26 32
      vertex -37.4712 26.2926 32
      vertex -37.5 26 35
    endloop
  endfacet
  facet normal 0.995185 0.098017 0
    outer loop
      vertex -37.5 26 35
      vertex -37.4712 25.7074 35
      vertex -37.4712 25.7074 32
    endloop
  endfacet
  facet normal 0.995185 0.098017 0
    outer loop
      vertex -37.5 26 32
      vertex -37.5 26 35
      vertex -37.4712 25.7074 32
    endloop
  endfacet
  facet normal 0.95694 -0.290286 0
    outer loop
      vertex -37.3858 26.574 32
      vertex -37.3858 26.574 35
      vertex -37.4712 26.2926 35
    endloop
  endfacet
  facet normal 0.95694 -0.290286 0
    outer loop
      vertex -37.4712 26.2926 32
      vertex -37.3858 26.574 32
      vertex -37.4712 26.2926 35
    endloop
  endfacet
  facet normal 0.881921 -0.471397 0
    outer loop
      vertex -37.2472 26.8334 32
      vertex -37.2472 26.8334 35
      vertex -37.3858 26.574 35
    endloop
  endfacet
  facet normal 0.881921 -0.471397 0
    outer loop
      vertex -37.3858 26.574 32
      vertex -37.2472 26.8334 32
      vertex -37.3858 26.574 35
    endloop
  endfacet
  facet normal 0.773011 -0.634392 0
    outer loop
      vertex -37.0607 27.0607 32
      vertex -37.0607 27.0607 35
      vertex -37.2472 26.8334 35
    endloop
  endfacet
  facet normal 0.773011 -0.634392 0
    outer loop
      vertex -37.2472 26.8334 32
      vertex -37.0607 27.0607 32
      vertex -37.2472 26.8334 35
    endloop
  endfacet
  facet normal 0.634392 -0.773011 0
    outer loop
      vertex -36.8334 27.2472 32
      vertex -36.8334 27.2472 35
      vertex -37.0607 27.0607 35
    endloop
  endfacet
  facet normal 0.634392 -0.773011 0
    outer loop
      vertex -37.0607 27.0607 32
      vertex -36.8334 27.2472 32
      vertex -37.0607 27.0607 35
    endloop
  endfacet
  facet normal 0.471397 -0.881921 0
    outer loop
      vertex -36.574 27.3858 32
      vertex -36.574 27.3858 35
      vertex -36.8334 27.2472 35
    endloop
  endfacet
  facet normal 0.471397 -0.881921 0
    outer loop
      vertex -36.8334 27.2472 32
      vertex -36.574 27.3858 32
      vertex -36.8334 27.2472 35
    endloop
  endfacet
  facet normal 0.290286 -0.95694 0
    outer loop
      vertex -36.2926 27.4712 32
      vertex -36.2926 27.4712 35
      vertex -36.574 27.3858 35
    endloop
  endfacet
  facet normal 0.290286 -0.95694 0
    outer loop
      vertex -36.574 27.3858 32
      vertex -36.2926 27.4712 32
      vertex -36.574 27.3858 35
    endloop
  endfacet
  facet normal 0.098017 -0.995185 0
    outer loop
      vertex -36 27.5 32
      vertex -36 27.5 35
      vertex -36.2926 27.4712 35
    endloop
  endfacet
  facet normal 0.098017 -0.995185 0
    outer loop
      vertex -36.2926 27.4712 32
      vertex -36 27.5 32
      vertex -36.2926 27.4712 35
    endloop
  endfacet
  facet normal -0.098017 -0.995185 0
    outer loop
      vertex -35.7074 27.4712 32
      vertex -35.7074 27.4712 35
      vertex -36 27.5 35
    endloop
  endfacet
  facet normal -0.098017 -0.995185 0
    outer loop
      vertex -36 27.5 32
      vertex -35.7074 27.4712 32
      vertex -36 27.5 35
    endloop
  endfacet
  facet normal -0.290286 -0.95694 0
    outer loop
      vertex -35.426 27.3858 32
      vertex -35.426 27.3858 35
      vertex -35.7074 27.4712 35
    endloop
  endfacet
  facet normal -0.290286 -0.95694 0
    outer loop
      vertex -35.7074 27.4712 32
      vertex -35.426 27.3858 32
      vertex -35.7074 27.4712 35
    endloop
  endfacet
  facet normal -0.471397 -0.881921 0
    outer loop
      vertex -35.1666 27.2472 32
      vertex -35.1666 27.2472 35
      vertex -35.426 27.3858 35
    endloop
  endfacet
  facet normal -0.471397 -0.881921 0
    outer loop
      vertex -35.426 27.3858 32
      vertex -35.1666 27.2472 32
      vertex -35.426 27.3858 35
    endloop
  endfacet
  facet normal -0.634392 -0.773011 0
    outer loop
      vertex -34.9393 27.0607 32
      vertex -34.9393 27.0607 35
      vertex -35.1666 27.2472 35
    endloop
  endfacet
  facet normal -0.634392 -0.773011 0
    outer loop
      vertex -35.1666 27.2472 32
      vertex -34.9393 27.0607 32
      vertex -35.1666 27.2472 35
    endloop
  endfacet
  facet normal -0.773011 -0.634392 0
    outer loop
      vertex -34.7528 26.8334 35
      vertex -34.9393 27.0607 35
      vertex -34.7528 26.8334 32
    endloop
  endfacet
  facet normal -0.773011 -0.634392 0
    outer loop
      vertex -34.7528 26.8334 32
      vertex -34.9393 27.0607 35
      vertex -34.9393 27.0607 32
    endloop
  endfacet
  facet normal -0.881921 -0.471397 0
    outer loop
      vertex -34.6142 26.574 35
      vertex -34.7528 26.8334 35
      vertex -34.6142 26.574 32
    endloop
  endfacet
  facet normal -0.881921 -0.471397 0
    outer loop
      vertex -34.6142 26.574 32
      vertex -34.7528 26.8334 35
      vertex -34.7528 26.8334 32
    endloop
  endfacet
  facet normal -0.95694 -0.290286 0
    outer loop
      vertex -34.5288 26.2926 35
      vertex -34.6142 26.574 35
      vertex -34.5288 26.2926 32
    endloop
  endfacet
  facet normal -0.95694 -0.290286 0
    outer loop
      vertex -34.5288 26.2926 32
      vertex -34.6142 26.574 35
      vertex -34.6142 26.574 32
    endloop
  endfacet
  facet normal -0.995185 -0.098017 0
    outer loop
      vertex -34.5 26 35
      vertex -34.5288 26.2926 35
      vertex -34.5 26 32
    endloop
  endfacet
  facet normal -0.995185 -0.098017 0
    outer loop
      vertex -34.5 26 32
      vertex -34.5288 26.2926 35
      vertex -34.5288 26.2926 32
    endloop
  endfacet
  facet normal -0.995185 0.098017 0
    outer loop
      vertex -34.5 26 35
      vertex -34.5 26 32
      vertex -34.5288 25.7074 35
    endloop
  endfacet
  facet normal -0.995185 0.098017 0
    outer loop
      vertex -34.5288 25.7074 35
      vertex -34.5 26 32
      vertex -34.5288 25.7074 32
    endloop
  endfacet
  facet normal -0.95694 0.290286 0
    outer loop
      vertex -34.5288 25.7074 35
      vertex -34.5288 25.7074 32
      vertex -34.6142 25.426 35
    endloop
  endfacet
  facet normal -0.95694 0.290286 0
    outer loop
      vertex -34.6142 25.426 35
      vertex -34.5288 25.7074 32
      vertex -34.6142 25.426 32
    endloop
  endfacet
  facet normal -0.881921 0.471397 0
    outer loop
      vertex -34.6142 25.426 35
      vertex -34.6142 25.426 32
      vertex -34.7528 25.1666 35
    endloop
  endfacet
  facet normal -0.881921 0.471397 0
    outer loop
      vertex -34.7528 25.1666 35
      vertex -34.6142 25.426 32
      vertex -34.7528 25.1666 32
    endloop
  endfacet
  facet normal -0.773011 0.634392 0
    outer loop
      vertex -34.7528 25.1666 35
      vertex -34.7528 25.1666 32
      vertex -34.9393 24.9393 35
    endloop
  endfacet
  facet normal -0.773011 0.634392 0
    outer loop
      vertex -34.9393 24.9393 35
      vertex -34.7528 25.1666 32
      vertex -34.9393 24.9393 32
    endloop
  endfacet
  facet normal -0.634392 0.773011 0
    outer loop
      vertex -34.9393 24.9393 35
      vertex -34.9393 24.9393 32
      vertex -35.1666 24.7528 35
    endloop
  endfacet
  facet normal -0.634392 0.773011 0
    outer loop
      vertex -35.1666 24.7528 35
      vertex -34.9393 24.9393 32
      vertex -35.1666 24.7528 32
    endloop
  endfacet
  facet normal -0.471397 0.881921 0
    outer loop
      vertex -35.1666 24.7528 35
      vertex -35.1666 24.7528 32
      vertex -35.426 24.6142 35
    endloop
  endfacet
  facet normal -0.471397 0.881921 0
    outer loop
      vertex -35.426 24.6142 35
      vertex -35.1666 24.7528 32
      vertex -35.426 24.6142 32
    endloop
  endfacet
  facet normal -0.290286 0.95694 0
    outer loop
      vertex -35.426 24.6142 35
      vertex -35.426 24.6142 32
      vertex -35.7074 24.5288 35
    endloop
  endfacet
  facet normal -0.290286 0.95694 0
    outer loop
      vertex -35.7074 24.5288 35
      vertex -35.426 24.6142 32
      vertex -35.7074 24.5288 32
    endloop
  endfacet
  facet normal -0.098017 0.995185 0
    outer loop
      vertex -35.7074 24.5288 35
      vertex -35.7074 24.5288 32
      vertex -36 24.5 35
    endloop
  endfacet
  facet normal -0.098017 0.995185 0
    outer loop
      vertex -36 24.5 35
      vertex -35.7074 24.5288 32
      vertex -36 24.5 32
    endloop
  endfacet
  facet normal 0.098017 0.995185 0
    outer loop
      vertex -36 24.5 35
      vertex -36 24.5 32
      vertex -36.2926 24.5288 35
    endloop
  endfacet
  facet normal 0.098017 0.995185 0
    outer loop
      vertex -36.2926 24.5288 35
      vertex -36 24.5 32
      vertex -36.2926 24.5288 32
    endloop
  endfacet
  facet normal 0.290286 0.95694 0
    outer loop
      vertex -36.2926 24.5288 35
      vertex -36.2926 24.5288 32
      vertex -36.574 24.6142 35
    endloop
  endfacet
  facet normal 0.290286 0.95694 0
    outer loop
      vertex -36.574 24.6142 35
      vertex -36.2926 24.5288 32
      vertex -36.574 24.6142 32
    endloop
  endfacet
  facet normal 0.471397 0.881921 0
    outer loop
      vertex -36.574 24.6142 35
      vertex -36.574 24.6142 32
      vertex -36.8334 24.7528 35
    endloop
  endfacet
  facet normal 0.471397 0.881921 0
    outer loop
      vertex -36.8334 24.7528 35
      vertex -36.574 24.6142 32
      vertex -36.8334 24.7528 32
    endloop
  endfacet
  facet normal 0.634392 0.773011 0
    outer loop
      vertex -36.8334 24.7528 35
      vertex -36.8334 24.7528 32
      vertex -37.0607 24.9393 35
    endloop
  endfacet
  facet normal 0.634392 0.773011 0
    outer loop
      vertex -37.0607 24.9393 35
      vertex -36.8334 24.7528 32
      vertex -37.0607 24.9393 32
    endloop
  endfacet
  facet normal 0.773011 0.634392 0
    outer loop
      vertex -37.2472 25.1666 35
      vertex -37.0607 24.9393 35
      vertex -37.0607 24.9393 32
    endloop
  endfacet
  facet normal 0.773011 0.634392 0
    outer loop
      vertex -37.2472 25.1666 32
      vertex -37.2472 25.1666 35
      vertex -37.0607 24.9393 32
    endloop
  endfacet
  facet normal 0.881921 0.471397 0
    outer loop
      vertex -37.3858 25.426 35
      vertex -37.2472 25.1666 35
      vertex -37.2472 25.1666 32
    endloop
  endfacet
  facet normal 0.881921 0.471397 0
    outer loop
      vertex -37.3858 25.426 32
      vertex -37.3858 25.426 35
      vertex -37.2472 25.1666 32
    endloop
  endfacet
  facet normal 0.95694 0.290286 0
    outer loop
      vertex -37.4712 25.7074 35
      vertex -37.3858 25.426 35
      vertex -37.3858 25.426 32
    endloop
  endfacet
  facet normal 0.95694 0.290286 0
    outer loop
      vertex -37.4712 25.7074 32
      vertex -37.4712 25.7074 35
      vertex -37.3858 25.426 32
    endloop
  endfacet
  facet normal 0.995185 -0.098017 0
    outer loop
      vertex 34.5288 -25.7074 32
      vertex 34.5288 -25.7074 35
      vertex 34.5 -26 35
    endloop
  endfacet
  facet normal 0.995185 -0.098017 0
    outer loop
      vertex 34.5 -26 32
      vertex 34.5288 -25.7074 32
      vertex 34.5 -26 35
    endloop
  endfacet
  facet normal 0.995185 0.098017 0
    outer loop
      vertex 34.5 -26 35
      vertex 34.5288 -26.2926 35
      vertex 34.5288 -26.2926 32
    endloop
  endfacet
  facet normal 0.995185 0.098017 0
    outer loop
      vertex 34.5 -26 32
      vertex 34.5 -26 35
      vertex 34.5288 -26.2926 32
    endloop
  endfacet
  facet normal 0.95694 -0.290286 0
    outer loop
      vertex 34.6142 -25.426 32
      vertex 34.6142 -25.426 35
      vertex 34.5288 -25.7074 35
    endloop
  endfacet
  facet normal 0.95694 -0.290286 0
    outer loop
      vertex 34.5288 -25.7074 32
      vertex 34.6142 -25.426 32
      vertex 34.5288 -25.7074 35
    endloop
  endfacet
  facet normal 0.881921 -0.471397 0
    outer loop
      vertex 34.7528 -25.1666 32
      vertex 34.7528 -25.1666 35
      vertex 34.6142 -25.426 35
    endloop
  endfacet
  facet normal 0.881921 -0.471397 0
    outer loop
      vertex 34.6142 -25.426 32
      vertex 34.7528 -25.1666 32
      vertex 34.6142 -25.426 35
    endloop
  endfacet
  facet normal 0.773011 -0.634392 0
    outer loop
      vertex 34.9393 -24.9393 32
      vertex 34.9393 -24.9393 35
      vertex 34.7528 -25.1666 35
    endloop
  endfacet
  facet normal 0.773011 -0.634392 0
    outer loop
      vertex 34.7528 -25.1666 32
      vertex 34.9393 -24.9393 32
      vertex 34.7528 -25.1666 35
    endloop
  endfacet
  facet normal 0.634392 -0.773011 0
    outer loop
      vertex 35.1666 -24.7528 32
      vertex 35.1666 -24.7528 35
      vertex 34.9393 -24.9393 35
    endloop
  endfacet
  facet normal 0.634392 -0.773011 0
    outer loop
      vertex 34.9393 -24.9393 32
      vertex 35.1666 -24.7528 32
      vertex 34.9393 -24.9393 35
    endloop
  endfacet
  facet normal 0.471397 -0.881921 0
    outer loop
      vertex 35.426 -24.6142 32
      vertex 35.426 -24.6142 35
      vertex 35.1666 -24.7528 35
    endloop
  endfacet
  facet normal 0.471397 -0.881921 0
    outer loop
      vertex 35.1666 -24.7528 32
      vertex 35.426 -24.6142 32
      vertex 35.1666 -24.7528 35
    endloop
  endfacet
  facet normal 0.290286 -0.95694 0
    outer loop
      vertex 35.7074 -24.5288 32
      vertex 35.7074 -24.5288 35
      vertex 35.426 -24.6142 35
    endloop
  endfacet
  facet normal 0.290286 -0.95694 0
    outer loop
      vertex 35.426 -24.6142 32
      vertex 35.7074 -24.5288 32
      vertex 35.426 -24.6142 35
    endloop
  endfacet
  facet normal 0.098017 -0.995185 0
    outer loop
      vertex 36 -24.5 32
      vertex 36 -24.5 35
      vertex 35.7074 -24.5288 35
    endloop
  endfacet
  facet normal 0.098017 -0.995185 0
    outer loop
      vertex 35.7074 -24.5288 32
      vertex 36 -24.5 32
      vertex 35.7074 -24.5288 35
    endloop
  endfacet
  facet normal -0.098017 -0.995185 0
    outer loop
      vertex 36.2926 -24.5288 32
      vertex 36.2926 -24.5288 35
      vertex 36 -24.5 35
    endloop
  endfacet
  facet normal -0.098017 -0.995185 0
    outer loop
      vertex 36 -24.5 32
      vertex 36.2926 -24.5288 32
      vertex 36 -24.5 35
    endloop
  endfacet
  facet normal -0.290286 -0.95694 0
    outer loop
      vertex 36.574 -24.6142 32
      vertex 36.574 -24.6142 35
      vertex 36.2926 -24.5288 35
    endloop
  endfacet
  facet normal -0.290286 -0.95694 0
    outer loop
      vertex 36.2926 -24.5288 32
      vertex 36.574 -24.6142 32
      vertex 36.2926 -24.5288 35
    endloop
  endfacet
  facet normal -0.471397 -0.881921 0
    outer loop
      vertex 36.8334 -24.7528 32
      vertex 36.8334 -24.7528 35
      vertex 36.574 -24.6142 35
    endloop
  endfacet
  facet normal -0.471397 -0.881921 0
    outer loop
      vertex 36.574 -24.6142 32
      vertex 36.8334 -24.7528 32
      vertex 36.574 -24.6142 35
    endloop
  endfacet
  facet normal -0.634392 -0.773011 0
    outer loop
      vertex 37.0607 -24.9393 32
      vertex 37.0607 -24.9393 35
      vertex 36.8334 -24.7528 35
    endloop
  endfacet
  facet normal -0.634392 -0.773011 0
    outer loop
      vertex 36.8334 -24.7528 32
      vertex 37.0607 -24.9393 32
      vertex 36.8334 -24.7528 35
    endloop
  endfacet
  facet normal -0.773011 -0.634392 0
    outer loop
      vertex 37.2472 -25.1666 35
      vertex 37.0607 -24.9393 35
      vertex 37.2472 -25.1666 32
    endloop
  endfacet
  facet normal -0.773011 -0.634392 0
    outer loop
      vertex 37.2472 -25.1666 32
      vertex 37.0607 -24.9393 35
      vertex 37.0607 -24.9393 32
    endloop
  endfacet
  facet normal -0.881921 -0.471397 0
    outer loop
      vertex 37.3858 -25.426 35
      vertex 37.2472 -25.1666 35
      vertex 37.3858 -25.426 32
    endloop
  endfacet
  facet normal -0.881921 -0.471397 0
    outer loop
      vertex 37.3858 -25.426 32
      vertex 37.2472 -25.1666 35
      vertex 37.2472 -25.1666 32
    endloop
  endfacet
  facet normal -0.95694 -0.290286 0
    outer loop
      vertex 37.4712 -25.7074 35
      vertex 37.3858 -25.426 35
      vertex 37.4712 -25.7074 32
    endloop
  endfacet
  facet normal -0.95694 -0.290286 0
    outer loop
      vertex 37.4712 -25.7074 32
      vertex 37.3858 -25.426 35
      vertex 37.3858 -25.426 32
    endloop
  endfacet
  facet normal -0.995185 -0.098017 0
    outer loop
      vertex 37.5 -26 35
      vertex 37.4712 -25.7074 35
      vertex 37.5 -26 32
    endloop
  endfacet
  facet normal -0.995185 -0.098017 0
    outer loop
      vertex 37.5 -26 32
      vertex 37.4712 -25.7074 35
      vertex 37.4712 -25.7074 32
    endloop
  endfacet
  facet normal -0.995185 0.098017 0
    outer loop
      vertex 37.5 -26 35
      vertex 37.5 -26 32
      vertex 37.4712 -26.2926 35
    endloop
  endfacet
  facet normal -0.995185 0.098017 0
    outer loop
      vertex 37.4712 -26.2926 35
      vertex 37.5 -26 32
      vertex 37.4712 -26.2926 32
    endloop
  endfacet
  facet normal -0.95694 0.290286 0
    outer loop
      vertex 37.4712 -26.2926 35
      vertex 37.4712 -26.2926 32
      vertex 37.3858 -26.574 35
    endloop
  endfacet
  facet normal -0.95694 0.290286 0
    outer loop
      vertex 37.3858 -26.574 35
      vertex 37.4712 -26.2926 32
      vertex 37.3858 -26.574 32
    endloop
  endfacet
  facet normal -0.881921 0.471397 0
    outer loop
      vertex 37.3858 -26.574 35
      vertex 37.3858 -26.574 32
      vertex 37.2472 -26.8334 35
    endloop
  endfacet
  facet normal -0.881921 0.471397 0
    outer loop
      vertex 37.2472 -26.8334 35
      vertex 37.3858 -26.574 32
      vertex 37.2472 -26.8334 32
    endloop
  endfacet
  facet normal -0.773011 0.634392 0
    outer loop
      vertex 37.2472 -26.8334 35
      vertex 37.2472 -26.8334 32
      vertex 37.0607 -27.0607 35
    endloop
  endfacet
  facet normal -0.773011 0.634392 0
    outer loop
      vertex 37.0607 -27.0607 35
      vertex 37.2472 -26.8334 32
      vertex 37.0607 -27.0607 32
    endloop
  endfacet
  facet normal -0.634392 0.773011 0
    outer loop
      vertex 37.0607 -27.0607 35
      vertex 37.0607 -27.0607 32
      vertex 36.8334 -27.2472 35
    endloop
  endfacet
  facet normal -0.634392 0.773011 0
    outer loop
      vertex 36.8334 -27.2472 35
      vertex 37.0607 -27.0607 32
      vertex 36.8334 -27.2472 32
    endloop
  endfacet
  facet normal -0.471397 0.881921 0
    outer loop
      vertex 36.8334 -27.2472 35
      vertex 36.8334 -27.2472 32
      vertex 36.574 -27.3858 35
    endloop
  endfacet
  facet normal -0.471397 0.881921 0
    outer loop
      vertex 36.574 -27.3858 35
      vertex 36.8334 -27.2472 32
      vertex 36.574 -27.3858 32
    endloop
  endfacet
  facet normal -0.290286 0.95694 0
    outer loop
      vertex 36.574 -27.3858 35
      vertex 36.574 -27.3858 32
      vertex 36.2926 -27.4712 35
    endloop
  endfacet
  facet normal -0.290286 0.95694 0
    outer loop
      vertex 36.2926 -27.4712 35
      vertex 36.574 -27.3858 32
      vertex 36.2926 -27.4712 32
    endloop
  endfacet
  facet normal -0.098017 0.995185 0
    outer loop
      vertex 36.2926 -27.4712 35
      vertex 36.2926 -27.4712 32
      vertex 36 -27.5 35
    endloop
  endfacet
  facet normal -0.098017 0.995185 0
    outer loop
      vertex 36 -27.5 35
      vertex 36.2926 -27.4712 32
      vertex 36 -27.5 32
    endloop
  endfacet
  facet normal 0.098017 0.995185 0
    outer loop
      vertex 36 -27.5 35
      vertex 36 -27.5 32
      vertex 35.7074 -27.4712 35
    endloop
  endfacet
  facet normal 0.098017 0.995185 0
    outer loop
      vertex 35.7074 -27.4712 35
      vertex 36 -27.5 32
      vertex 35.7074 -27.4712 32
    endloop
  endfacet
  facet normal 0.290286 0.95694 0
    outer loop
      vertex 35.7074 -27.4712 35
      vertex 35.7074 -27.4712 32
      vertex 35.426 -27.3858 35
    endloop
  endfacet
  facet normal 0.290286 0.95694 0
    outer loop
      vertex 35.426 -27.3858 35
      vertex 35.7074 -27.4712 32
      vertex 35.426 -27.3858 32
    endloop
  endfacet
  facet normal 0.471397 0.881921 0
    outer loop
      vertex 35.426 -27.3858 35
      vertex 35.426 -27.3858 32
      vertex 35.1666 -27.2472 35
    endloop
  endfacet
  facet normal 0.471397 0.881921 0
    outer loop
      vertex 35.1666 -27.2472 35
      vertex 35.426 -27.3858 32
      vertex 35.1666 -27.2472 32
    endloop
  endfacet
  facet normal 0.634392 0.773011 0
    outer loop
      vertex 35.1666 -27.2472 35
      vertex 35.1666 -27.2472 32
      vertex 34.9393 -27.0607 35
    endloop
  endfacet
  facet normal 0.634392 0.773011 0
    outer loop
      vertex 34.9393 -27.0607 35
      vertex 35.1666 -27.2472 32
      vertex 34.9393 -27.0607 32
    endloop
  endfacet
  facet normal 0.773011 0.634392 0
    outer loop
      vertex 34.7528 -26.8334 35
      vertex 34.9393 -27.0607 35
      vertex 34.9393 -27.0607 32
    endloop
  endfacet
  facet normal 0.773011 0.634392 0
    outer loop
      vertex 34.7528 -26.8334 32
      vertex 34.7528 -26.8334 35
      vertex 34.9393 -27.0607 32
    endloop
  endfacet
  facet normal 0.881921 0.471397 0
    outer loop
      vertex 34.6142 -26.574 35
      vertex 34.7528 -26.8334 35
      vertex 34.7528 -26.8334 32
    endloop
  endfacet
  facet normal 0.881921 0.471397 0
    outer loop
      vertex 34.6142 -26.574 32
      vertex 34.6142 -26.574 35
      vertex 34.7528 -26.8334 32
    endloop
  endfacet
  facet normal 0.95694 0.290286 0
    outer loop
      vertex 34.5288 -26.2926 35
      vertex 34.6142 -26.574 35
      vertex 34.6142 -26.574 32
    endloop
  endfacet
  facet normal 0.95694 0.290286 0
    outer loop
      vertex 34.5288 -26.2926 32
      vertex 34.5288 -26.2926 35
      vertex 34.6142 -26.574 32
    endloop
  endfacet
  facet normal 0.995185 -0.098017 0
    outer loop
      vertex 34.5288 26.2926 32
      vertex 34.5288 26.2926 35
      vertex 34.5 26 35
    endloop
  endfacet
  facet normal 0.995185 -0.098017 0
    outer loop
      vertex 34.5 26 32
      vertex 34.5288 26.2926 32
      vertex 34.5 26 35
    endloop
  endfacet
  facet normal 0.995185 0.098017 0
    outer loop
      vertex 34.5 26 35
      vertex 34.5288 25.7074 35
      vertex 34.5288 25.7074 32
    endloop
  endfacet
  facet normal 0.995185 0.098017 0
    outer loop
      vertex 34.5 26 32
      vertex 34.5 26 35
      vertex 34.5288 25.7074 32
    endloop
  endfacet
  facet normal 0.95694 -0.290286 0
    outer loop
      vertex 34.6142 26.574 32
      vertex 34.6142 26.574 35
      vertex 34.5288 26.2926 35
    endloop
  endfacet
  facet normal 0.95694 -0.290286 0
    outer loop
      vertex 34.5288 26.2926 32
      vertex 34.6142 26.574 32
      vertex 34.5288 26.2926 35
    endloop
  endfacet
  facet normal 0.881921 -0.471397 0
    outer loop
      vertex 34.7528 26.8334 32
      vertex 34.7528 26.8334 35
      vertex 34.6142 26.574 35
    endloop
  endfacet
  facet normal 0.881921 -0.471397 0
    outer loop
      vertex 34.6142 26.574 32
      vertex 34.7528 26.8334 32
      vertex 34.6142 26.574 35
    endloop
  endfacet
  facet normal 0.773011 -0.634392 0
    outer loop
      vertex 34.9393 27.0607 32
      vertex 34.9393 27.0607 35
      vertex 34.7528 26.8334 35
    endloop
  endfacet
  facet normal 0.773011 -0.634392 0
    outer loop
      vertex 34.7528 26.8334 32
      vertex 34.9393 27.0607 32
      vertex 34.7528 26.8334 35
    endloop
  endfacet
  facet normal 0.634392 -0.773011 0
    outer loop
      vertex 35.1666 27.2472 32
      vertex 35.1666 27.2472 35
      vertex 34.9393 27.0607 35
    endloop
  endfacet
  facet normal 0.634392 -0.773011 0
    outer loop
      vertex 34.9393 27.0607 32
      vertex 35.1666 27.2472 32
      vertex 34.9393 27.0607 35
    endloop
  endfacet
  facet normal 0.471397 -0.881921 0
    outer loop
      vertex 35.426 27.3858 32
      vertex 35.426 27.3858 35
      vertex 35.1666 27.2472 35
    endloop
  endfacet
  facet normal 0.471397 -0.881921 0
    outer loop
      vertex 35.1666 27.2472 32
      vertex 35.426 27.3858 32
      vertex 35.1666 27.2472 35
    endloop
  endfacet
  facet normal 0.290286 -0.95694 0
    outer loop
      vertex 35.7074 27.4712 32
      vertex 35.7074 27.4712 35
      vertex 35.426 27.3858 35
    endloop
  endfacet
  facet normal 0.290286 -0.95694 0
    outer loop
      vertex 35.426 27.3858 32
      vertex 35.7074 27.4712 32
      vertex 35.426 27.3858 35
    endloop
  endfacet
  facet normal 0.098017 -0.995185 0
    outer loop
      vertex 36 27.5 32
      vertex 36 27.5 35
      vertex 35.7074 27.4712 35
    endloop
  endfacet
  facet normal 0.098017 -0.995185 0
    outer loop
      vertex 35.7074 27.4712 32
      vertex 36 27.5 32
      vertex 35.7074 27.4712 35
    endloop
  endfacet
  facet normal -0.098017 -0.995185 0
    outer loop
      vertex 36.2926 27.4712 32
      vertex 36.2926 27.4712 35
      vertex 36 27.5 35
    endloop
  endfacet
  facet normal -0.098017 -0.995185 0
    outer loop
      vertex 36 27.5 32
      vertex 36.2926 27.4712 32
      vertex 36 27.5 35
    endloop
  endfacet
  facet normal -0.290286 -0.95694 0
    outer loop
      vertex 36.574 27.3858 32
      vertex 36.574 27.3858 35
      vertex 36.2926 27.4712 35
    endloop
  endfacet
  facet normal -0.290286 -0.95694 0
    outer loop
      vertex 36.2926 27.4712 32
      vertex 36.574 27.3858 32
      vertex 36.2926 27.4712 35
    endloop
  endfacet
  facet normal -0.471397 -0.881921 0
    outer loop
      vertex 36.8334 27.2472 32
      vertex 36.8334 27.2472 35
      vertex 36.574 27.3858 35
    endloop
  endfacet
  facet normal -0.471397 -0.881921 0
    outer loop
      vertex 36.574 27.3858 32
      vertex 36.8334 27.2472 32
      vertex 36.574 27.3858 35
    endloop
  endfacet
  facet normal -0.634392 -0.773011 0
    outer loop
      vertex 37.0607 27.0607 32
      vertex 37.0607 27.0607 35
      vertex 36.8334 27.2472 35
    endloop
  endfacet
  facet normal -0.634392 -0.773011 0
    outer loop
      vertex 36.8334 27.2472 32
      vertex 37.0607 27.0607 32
      vertex 36.8334 27.2472 35
    endloop
  endfacet
  facet normal -0.773011 -0.634392 0
    outer loop
      vertex 37.2472 26.8334 35
      vertex 37.0607 27.0607 35
      vertex 37.2472 26.8334 32
    endloop
  endfacet
  facet normal -0.773011 -0.634392 0
    outer loop
      vertex 37.2472 26.8334 32
      vertex 37.0607 27.0607 35
      vertex 37.0607 27.0607 32
    endloop
  endfacet
  facet normal -0.881921 -0.471397 0
    outer loop
      vertex 37.3858 26.574 35
      vertex 37.2472 26.8334 35
      vertex 37.3858 26.574 32
    endloop
  endfacet
  facet normal -0.881921 -0.471397 0
    outer loop
      vertex 37.3858 26.574 32
      vertex 37.2472 26.8334 35
      vertex 37.2472 26.8334 32
    endloop
  endfacet
  facet normal -0.95694 -0.290286 0
    outer loop
      vertex 37.4712 26.2926 35
      vertex 37.3858 26.574 35
      vertex 37.4712 26.2926 32
    endloop
  endfacet
  facet normal -0.95694 -0.290286 0
    outer loop
      vertex 37.4712 26.2926 32
      vertex 37.3858 26.574 35
      vertex 37.3858 26.574 32
    endloop
  endfacet
  facet normal -0.995185 -0.098017 0
    outer loop
      vertex 37.5 26 35
      vertex 37.4712 26.2926 35
      vertex 37.5 26 32
    endloop
  endfacet
  facet normal -0.995185 -0.098017 0
    outer loop
      vertex 37.5 26 32
      vertex 37.4712 26.2926 35
      vertex 37.4712 26.2926 32
    endloop
  endfacet
  facet normal -0.995185 0.098017 0
    outer loop
      vertex 37.5 26 35
      vertex 37.5 26 32
      vertex 37.4712 25.7074 35
    endloop
  endfacet
  facet normal -0.995185 0.098017 0
    outer loop
      vertex 37.4712 25.7074 35
      vertex 37.5 26 32
      vertex 37.4712 25.7074 32
    endloop
  endfacet
  facet normal -0.95694 0.290286 0
    outer loop
      vertex 37.4712 25.7074 35
      vertex 37.4712 25.7074 32
      vertex 37.3858 25.426 35
    endloop
  endfacet
  facet normal -0.95694 0.290286 0
    outer loop
      vertex 37.3858 25.426 35
      vertex 37.4712 25.7074 32
      vertex 37.3858 25.426 32
    endloop
  endfacet
  facet normal -0.881921 0.471397 0
    outer loop
      vertex 37.3858 25.426 35
      vertex 37.3858 25.426 32
      vertex 37.2472 25.1666 35
    endloop
  endfacet
  facet normal -0.881921 0.471397 0
    outer loop
      vertex 37.2472 25.1666 35
      vertex 37.3858 25.426 32
      vertex 37.2472 25.1666 32
    endloop
  endfacet
  facet normal -0.773011 0.634392 0
    outer loop
      vertex 37.2472 25.1666 35
      vertex 37.2472 25.1666 32
      vertex 37.0607 24.9393 35
    endloop
  endfacet
  facet normal -0.773011 0.634392 0
    outer loop
      vertex 37.0607 24.9393 35
      vertex 37.2472 25.1666 32
      vertex 37.0607 24.9393 32
    endloop
  endfacet
  facet normal -0.634392 0.773011 0
    outer loop
      vertex 37.0607 24.9393 35
      vertex 37.0607 24.9393 32
      vertex 36.8334 24.7528 35
    endloop
  endfacet
  facet normal -0.634392 0.773011 0
    outer loop
      vertex 36.8334 24.7528 35
      vertex 37.0607 24.9393 32
      vertex 36.8334 24.7528 32
    endloop
  endfacet
  facet normal -0.471397 0.881921 0
    outer loop
      vertex 36.8334 24.7528 35
      vertex 36.8334 24.7528 32
      vertex 36.574 24.6142 35
    endloop
  endfacet
  facet normal -0.471397 0.881921 0
    outer loop
      vertex 36.574 24.6142 35
      vertex 36.8334 24.7528 32
      vertex 36.574 24.6142 32
    endloop
  endfacet
  facet normal -0.290286 0.95694 0
    outer loop
      vertex 36.574 24.6142 35
      vertex 36.574 24.6142 32
      vertex 36.2926 24.5288 35
    endloop
  endfacet
  facet normal -0.290286 0.95694 0
    outer loop
      vertex 36.2926 24.5288 35
      vertex 36.574 24.6142 32
      vertex 36.2926 24.5288 32
    endloop
  endfacet
  facet normal -0.098017 0.995185 0
    outer loop
      vertex 36.2926 24.5288 35
      vertex 36.2926 24.5288 32
      vertex 36 24.5 35
    endloop
  endfacet
  facet normal -0.098017 0.995185 0
    outer loop
      vertex 36 24.5 35
      vertex 36.2926 24.5288 32
      vertex 36 24.5 32
    endloop
  endfacet
  facet normal 0.098017 0.995185 0
    outer loop
      vertex 36 24.5 35
      vertex 36 24.5 32
      vertex 35.7074 24.5288 35
    endloop
  endfacet
  facet normal 0.098017 0.995185 0
    outer loop
      vertex 35.7074 24.5288 35
      vertex 36 24.5 32
      vertex 35.7074 24.5288 32
    endloop
  endfacet
  facet normal 0.290286 0.95694 0
    outer loop
      vertex 35.7074 24.5288 35
      vertex 35.7074 24.5288 32
      vertex 35.426 24.6142 35
    endloop
  endfacet
  facet normal 0.290286 0.95694 0
    outer loop
      vertex 35.426 24.6142 35
      vertex 35.7074 24.5288 32
      vertex 35.426 24.6142 32
    endloop
  endfacet
  facet normal 0.471397 0.881921 0
    outer loop
      vertex 35.426 24.6142 35
      vertex 35.426 24.6142 32
      vertex 35.1666 24.7528 35
    endloop
  endfacet
  facet normal 0.471397 0.881921 0
    outer loop
      vertex 35.1666 24.7528 35
      vertex 35.426 24.6142 32
      vertex 35.1666 24.7528 32
    endloop
  endfacet
  facet normal 0.634392 0.773011 0
    outer loop
      vertex 35.1666 24.7528 35
      vertex 35.1666 24.7528 32
      vertex 34.9393 24.9393 35
    endloop
  endfacet
  facet normal 0.634392 0.773011 0
    outer loop
      vertex 34.9393 24.9393 35
      vertex 35.1666 24.7528 32
      vertex 34.9393 24.9393 32
    endloop
  endfacet
  facet normal 0.773011 0.634392 0
    outer loop
      vertex 34.7528 25.1666 35
      vertex 34.9393 24.9393 35
      vertex 34.9393 24.9393 32
    endloop
  endfacet
  facet normal 0.773011 0.634392 0
    outer loop
      vertex 34.7528 25.1666 32
      vertex 34.7528 25.1666 35
      vertex 34.9393 24.9393 32
    endloop
  endfacet
  facet normal 0.881921 0.471397 0
    outer loop
      vertex 34.6142 25.426 35
      vertex 34.7528 25.1666 35
      vertex 34.7528 25.1666 32
    endloop
  endfacet
  facet normal 0.881921 0.471397 0
    outer loop
      vertex 34.6142 25.426 32
      vertex 34.6142 25.426 35
      vertex 34.7528 25.1666 32
    endloop
  endfacet
  facet normal 0.95694 0.290286 0
    outer loop
      vertex 34.5288 25.7074 35
      vertex 34.6142 25.426 35
      vertex 34.6142 25.426 32
    endloop
  endfacet
  facet normal 0.95694 0.290286 0
    outer loop
      vertex 34.5288 25.7074 32
      vertex 34.5288 25.7074 35
      vertex 34.6142 25.426 32
    endloop
  endfacet
endsolid OpenSCAD_Model
